<svg width="328" height="239" viewBox="0 0 328 239" fill="none" xmlns="http://www.w3.org/2000/svg">
<path d="M229.436 82.1155L298.307 42.3903C298.985 41.9823 299.767 41.775 300.564 41.7925C301.359 41.81 302.136 42.0516 302.805 42.4892C303.473 42.9268 304.006 43.5425 304.34 44.2652C304.675 44.9879 304.798 45.7881 304.696 46.5729L289.931 178.185C289.835 179.062 289.464 179.884 288.87 180.533C288.277 181.183 287.49 181.627 286.623 181.803C285.756 181.978 284.852 181.877 284.04 181.513C283.228 181.148 282.551 180.539 282.102 179.773L227.936 87.865C227.372 86.8955 227.212 85.7473 227.493 84.6702C227.774 83.5931 228.472 82.6749 229.436 82.1155Z" fill="#DAE7F0"/>
<path d="M26.9424 106.575L222.178 125.137C223.603 125.289 225.045 125.034 226.34 124.402C227.635 123.771 228.73 122.787 229.501 121.565C230.271 120.343 230.686 118.93 230.698 117.489C230.71 116.048 230.319 114.637 229.569 113.417L169.051 12.4704C168.534 11.61 167.852 10.862 167.045 10.2693C166.237 9.67668 165.32 9.2509 164.345 9.01632C163.37 8.78181 162.357 8.74311 161.363 8.90246C160.37 9.06182 159.415 9.41609 158.554 9.94503L23.8355 92.3284C22.4407 93.1607 21.3399 94.4128 20.6909 95.9057C20.042 97.398 19.8783 99.0543 20.2233 100.636C20.5684 102.219 21.4044 103.645 22.6116 104.712C23.8188 105.779 25.3349 106.431 26.9424 106.575Z" fill="#DAE7F0"/>
<path d="M51.6783 129.887L120.578 234.594C121 235.222 121.573 235.735 122.245 236.087C122.917 236.438 123.666 236.616 124.421 236.604C125.175 236.591 125.911 236.388 126.559 236.015C127.208 235.641 127.748 235.109 128.127 234.467L184.196 139.215C184.568 138.572 184.77 137.843 184.78 137.096C184.79 136.349 184.608 135.608 184.253 134.944C183.897 134.28 183.379 133.713 182.747 133.297C182.114 132.881 181.388 132.63 180.636 132.566L55.6672 123.111C54.842 123.049 54.0194 123.216 53.2913 123.594C52.5633 123.97 51.9585 124.543 51.5446 125.246C51.1307 125.949 50.924 126.755 50.9476 127.575C50.9712 128.395 51.2242 129.195 51.6783 129.887Z" fill="#DAE7F0"/>
<path d="M216.681 198.768L216.154 206.547C216.152 206.595 216.161 206.642 216.181 206.684C216.2 206.727 216.231 206.764 216.269 206.791C216.307 206.82 216.351 206.837 216.397 206.843C216.443 206.849 216.49 206.843 216.533 206.825L222.894 204.218C222.937 204.2 222.974 204.171 223.003 204.135C223.031 204.098 223.051 204.055 223.058 204.009C223.065 203.963 223.061 203.915 223.045 203.87C223.029 203.826 223.003 203.786 222.968 203.755L217.134 198.582C217.095 198.548 217.049 198.525 216.998 198.517C216.948 198.508 216.896 198.514 216.849 198.533C216.803 198.552 216.762 198.584 216.732 198.626C216.703 198.667 216.685 198.716 216.681 198.768Z" fill="#2F82B8"/>
<path d="M70.3816 150.011L77.3804 153.853C77.4234 153.876 77.4708 153.887 77.5188 153.887C77.5675 153.887 77.6149 153.874 77.6572 153.851C77.6988 153.828 77.7347 153.795 77.7597 153.755C77.7853 153.714 77.7994 153.668 77.802 153.621L78.121 146.586C78.1229 146.539 78.112 146.492 78.0909 146.449C78.0691 146.407 78.0364 146.371 77.9967 146.344C77.957 146.317 77.9109 146.301 77.8628 146.296C77.8148 146.292 77.7667 146.299 77.7225 146.318L70.404 149.51C70.356 149.531 70.315 149.565 70.2849 149.608C70.2554 149.651 70.2381 149.702 70.2355 149.754C70.2336 149.806 70.2458 149.857 70.2714 149.902C70.297 149.948 70.3355 149.986 70.3816 150.011Z" fill="#2F82B8"/>
<path d="M203.302 18.8373L196.291 22.6575C196.249 22.6809 196.213 22.7146 196.187 22.7554C196.161 22.7963 196.146 22.8428 196.143 22.8908C196.14 22.9388 196.149 22.9866 196.169 23.0297C196.189 23.0729 196.22 23.11 196.259 23.1375L202.008 27.2022C202.047 27.2294 202.092 27.2459 202.139 27.2506C202.186 27.2551 202.234 27.2476 202.279 27.2285C202.323 27.2094 202.361 27.1795 202.391 27.1416C202.421 27.1036 202.441 27.0589 202.449 27.0114L203.711 19.1265C203.719 19.0744 203.713 19.0213 203.693 18.9731C203.673 18.9248 203.64 18.8834 203.597 18.8534C203.555 18.8234 203.505 18.806 203.452 18.8032C203.4 18.8003 203.348 18.8121 203.302 18.8373Z" fill="#2F82B8"/>
<path d="M53.2198 97.2563L58.0039 98.7973C58.0328 98.8063 58.0636 98.8082 58.0935 98.8024C58.1233 98.7966 58.1512 98.7832 58.1744 98.764C58.1977 98.7441 58.2156 98.7198 58.2265 98.6916C58.2374 98.6634 58.2408 98.6333 58.2366 98.6038L57.5962 94.2172C57.5916 94.1878 57.5796 94.1602 57.5611 94.1365C57.5427 94.1128 57.5184 94.0942 57.4906 94.0827C57.4628 94.0705 57.4324 94.066 57.4022 94.0686C57.372 94.0718 57.3429 94.082 57.3178 94.0993L53.1742 96.9442C53.1469 96.9628 53.1253 96.9891 53.1121 97.0192C53.0987 97.0493 53.0943 97.082 53.099 97.1147C53.1037 97.1467 53.1175 97.1775 53.1388 97.2025C53.1602 97.2275 53.1882 97.246 53.2198 97.2563Z" fill="#9AAFBC"/>
<path d="M109.685 56.6987L118.034 56.6006C118.084 56.5995 118.133 56.5859 118.177 56.5608C118.221 56.5358 118.258 56.5001 118.284 56.4574C118.311 56.4146 118.326 56.366 118.328 56.3162C118.33 56.2665 118.32 56.2171 118.298 56.1726L114.975 49.6021C114.952 49.558 114.918 49.5205 114.877 49.4931C114.835 49.4656 114.787 49.4492 114.737 49.4453C114.687 49.4413 114.637 49.45 114.59 49.4705C114.544 49.491 114.505 49.5227 114.474 49.5625L109.449 56.2313C109.415 56.2753 109.396 56.3275 109.39 56.3819C109.385 56.4363 109.396 56.4908 109.42 56.5393C109.445 56.5878 109.483 56.6283 109.529 56.6565C109.576 56.6847 109.63 56.6993 109.685 56.6987Z" fill="#9AAFBC"/>
<path d="M253.365 91.8415L258.314 97.1693C258.344 97.2014 258.381 97.2251 258.423 97.2392C258.465 97.2526 258.51 97.2552 258.552 97.2475C258.596 97.2398 258.636 97.2206 258.67 97.1931C258.703 97.1655 258.729 97.1303 258.744 97.0899L261.037 91.1002C261.052 91.0598 261.056 91.0162 261.05 90.9733C261.043 90.9304 261.025 90.89 260.999 90.8554C260.972 90.8208 260.937 90.7932 260.897 90.7759C260.857 90.758 260.813 90.7503 260.769 90.7541L253.528 91.4154C253.48 91.4199 253.434 91.4372 253.397 91.4654C253.358 91.4942 253.329 91.5327 253.312 91.5769C253.295 91.6211 253.292 91.6691 253.301 91.7159C253.31 91.7627 253.332 91.8063 253.365 91.8415Z" fill="#2F82B8"/>
<path d="M243.512 145.242L246.85 147.425C246.883 147.447 246.922 147.46 246.962 147.461C247.001 147.462 247.041 147.453 247.076 147.432C247.111 147.412 247.139 147.383 247.158 147.348C247.177 147.312 247.185 147.273 247.182 147.233L246.812 140.599C246.81 140.555 246.793 140.513 246.766 140.479C246.737 140.445 246.699 140.421 246.656 140.409C246.613 140.398 246.568 140.401 246.526 140.416C246.484 140.432 246.448 140.461 246.424 140.498L243.453 144.949C243.422 144.997 243.411 145.054 243.422 145.108C243.433 145.163 243.466 145.211 243.512 145.242Z" fill="#9AAFBC"/>
<g filter="url(#filter0_d)">
<path d="M232.546 101.879H98.0151C95.1847 101.879 92.8901 104.174 92.8901 107.005V189.021C92.8901 191.852 95.1847 194.147 98.0151 194.147H232.546C235.377 194.147 237.671 191.852 237.671 189.021V107.005C237.671 104.174 235.377 101.879 232.546 101.879Z" fill="#3A8FC6"/>
<path fill-rule="evenodd" clip-rule="evenodd" d="M122.42 166.685C122.42 175.795 125.684 184.653 131.742 191.765C132.431 192.575 133.144 193.366 133.869 194.147C133.353 193.946 132.841 193.739 132.331 193.527L133.381 194.147H98.2265C95.3956 194.147 93.1015 191.853 93.1015 189.021V158.348C93.0304 158.215 92.96 158.082 92.8901 157.948V112.131H134.531C129.224 112.131 122.42 116.174 122.42 121.162V166.685Z" fill="#2F82B8"/>
<path d="M113.241 165.774H131.636V172.157H140.433V165.774H144.99V158.452H140.433V133.708H128.846L113.241 158.528V165.774ZM131.822 158.452H122.392V158.152L131.524 143.546H131.822V158.452Z" fill="white"/>
<path d="M165.57 173.096C175.54 173.115 181.659 165.68 181.677 152.989C181.696 140.373 175.54 133.183 165.57 133.183C155.601 133.183 149.501 140.354 149.482 152.989C149.445 165.642 155.601 173.096 165.57 173.096ZM165.57 165.492C161.608 165.492 158.911 161.475 158.949 152.989C158.967 144.672 161.627 140.729 165.57 140.729C169.532 140.729 172.192 144.672 172.21 152.989C172.229 161.475 169.55 165.492 165.57 165.492Z" fill="white"/>
<path d="M186.485 165.774H204.88V172.157H213.677V165.774H218.234V158.452H213.677V133.708H202.09L186.485 158.528V165.774ZM205.065 158.452H195.636V158.152L204.768 143.546H205.065V158.452Z" fill="white"/>
<path d="M160.325 112.132H176.171L166.393 94.8313H150.546L160.325 112.132Z" fill="#2F82B8"/>
<path d="M196.524 94.8313H180.656L190.412 112.132H206.281L196.524 94.8313Z" fill="#2F82B8"/>
<path d="M235.305 94.8313H210.765L220.505 112.132H235.305C236.612 112.132 237.671 111.054 237.671 109.726V97.2373C237.671 95.9084 236.612 94.8313 235.305 94.8313Z" fill="#2F82B8"/>
<path d="M136.407 94.8313H119.26L124.674 100.339C125.232 100.907 125.221 101.632 125.025 102.12C124.828 102.609 124.338 103.131 123.553 103.131H103.468C102.59 103.131 101.876 102.399 101.876 101.498V94.8313H95.8767C94.5807 94.8313 93.5308 95.909 93.5308 97.2373V109.726C93.5308 111.054 94.5807 112.132 95.8767 112.132H146.062L136.407 94.8313Z" fill="#2F82B8"/>
<path d="M127.553 109.482V97.1982C127.553 95.8911 128.619 94.8313 129.934 94.8313H119.014L124.511 100.249C125.077 100.808 125.066 101.52 124.867 102.001C124.668 102.481 124.171 102.995 123.372 102.995H102.979C102.088 102.995 101.364 102.274 101.364 101.389V94.8313H95.272C93.9568 94.8313 92.8901 95.8911 92.8901 97.1982V109.482C92.8901 110.789 93.9395 112.132 95.2547 112.132H131.328C130.012 112.132 127.553 110.789 127.553 109.482Z" fill="#3A8FC6"/>
<path d="M138.552 62.9023L91.4617 74.87C90.2029 75.1904 89.4406 76.4732 89.7596 77.7355L92.7596 89.6022C93.0787 90.8644 94.3586 91.6289 95.6175 91.3091L101.619 89.7835V81.5716C101.619 80.7854 102.126 80.2933 102.602 80.0947C102.784 80.0178 103.001 79.9691 103.231 79.9691C103.598 79.9691 103.996 80.0947 104.34 80.4356L111.272 87.3301L133.183 81.7619L138.552 62.9023Z" fill="#2F82B8"/>
<path d="M121.745 82.4413L118.586 69.9473C118.398 69.2028 118.568 68.4512 118.986 67.8745L91.4617 74.8696C90.2029 75.19 89.4406 76.4727 89.7596 77.735L92.7596 89.6017C93.0787 90.864 94.3586 91.6284 95.6175 91.3087L101.619 89.7831V81.5712C101.619 80.785 102.126 80.2929 102.602 80.0943C102.784 80.0174 103.001 79.9687 103.231 79.9687C103.598 79.9687 103.996 80.0943 104.339 80.4352L111.272 87.3296L123.491 84.2246C122.66 83.9952 121.972 83.339 121.745 82.4413Z" fill="#3A8FC6"/>
<path d="M167.761 55.479L152.892 59.2578L147.523 78.1174L162.392 74.3382L167.761 55.479Z" fill="#2F82B8"/>
<path d="M197.031 48.04L182.101 51.8346L176.732 70.6937L191.662 66.8992L197.031 48.04Z" fill="#2F82B8"/>
<path d="M232.79 54.0137L229.79 42.1471C229.471 40.8846 228.191 40.1205 226.932 40.4405L211.372 44.3953L206.003 63.2546L231.088 56.8794C232.347 56.5593 233.109 55.2764 232.79 54.0137Z" fill="#2F82B8"/>
<path d="M124.721 100.22L104.581 80.1903C103.357 78.9735 101.276 79.843 101.276 81.5711V101.6C101.276 102.674 102.144 103.545 103.216 103.545H123.356C125.087 103.544 125.95 101.442 124.721 100.22Z" fill="#2F82B8"/>
<path d="M145.634 112.132H160.796L150.974 94.8313H135.812L145.634 112.132Z" fill="white"/>
<path d="M175.743 112.132H190.906L181.084 94.8313H165.921L175.743 112.132Z" fill="white"/>
<path d="M205.852 112.132H221.015L211.193 94.8313H196.031L205.852 112.132Z" fill="white"/>
<path d="M133.003 81.8065L147.639 78.0876L153.007 59.228L138.371 62.9477L133.003 81.8065Z" fill="white"/>
<path d="M162.244 74.3749L176.879 70.6553L182.248 51.7964L167.613 55.5157L162.244 74.3749Z" fill="white"/>
<path d="M191.515 66.9359L206.15 63.2167L211.519 44.3574L196.884 48.0768L191.515 66.9359Z" fill="white"/>
<path d="M106.008 96.5236L110.869 92.3838C109.979 89.2857 113.287 88.8494 113.287 88.8494L104.581 80.1903C103.357 78.9735 101.276 79.843 101.276 81.5711V101.6C101.78 96.2706 106.008 96.5236 106.008 96.5236Z" fill="#2F82B8"/>
<path d="M109.249 98.8486C107.382 98.8486 105.819 97.3249 105.819 95.4104C105.819 93.2196 107.835 91.6171 109.917 92.0374C111.548 92.3693 112.677 93.795 112.677 95.4104C112.678 97.3172 111.122 98.8486 109.249 98.8486Z" fill="white"/>
</g>
<defs>
<filter id="filter0_d" x="69.687" y="24.3677" width="187.984" height="193.78" filterUnits="userSpaceOnUse" color-interpolation-filters="sRGB">
<feFlood flood-opacity="0" result="BackgroundImageFix"/>
<feColorMatrix in="SourceAlpha" type="matrix" values="0 0 0 0 0 0 0 0 0 0 0 0 0 0 0 0 0 0 127 0"/>
<feOffset dy="4"/>
<feGaussianBlur stdDeviation="10"/>
<feColorMatrix type="matrix" values="0 0 0 0 0.808264 0 0 0 0 0.83785 0 0 0 0 0.858333 0 0 0 0.8 0"/>
<feBlend mode="normal" in2="BackgroundImageFix" result="effect1_dropShadow"/>
<feBlend mode="normal" in="SourceGraphic" in2="effect1_dropShadow" result="shape"/>
</filter>
</defs>
</svg>
