<svg width="166" height="20" viewBox="0 0 166 20" fill="none" xmlns="http://www.w3.org/2000/svg">
    <path fill-rule="evenodd" clip-rule="evenodd" d="M3.56313 0H16.5581C18.5283 0 20.1212 1.62393 20.1212 3.63248V16.3675C20.1212 18.3761 18.5283 20 16.5581 20H3.56313C1.59293 20 0 18.3761 0 16.3675V3.63248C0 1.62393 1.59293 0 3.56313 0ZM4.77881 14.0083V5.21341C4.77881 5.15359 4.80396 5.1194 4.86265 5.1194C5.00517 5.1194 5.13931 5.1194 5.33214 5.11085C5.43576 5.10645 5.54159 5.10431 5.6508 5.10211H5.65083H5.65086C5.75371 5.10004 5.85954 5.0979 5.96931 5.09376C6.08639 5.08934 6.20796 5.0872 6.33401 5.08499C6.45167 5.08292 6.57323 5.08079 6.69871 5.07666C6.95861 5.06812 7.21012 5.06812 7.46164 5.06812C8.14911 5.06812 8.71921 5.15359 9.18871 5.33307C9.6079 5.47837 9.99356 5.71769 10.3121 6.03393C10.5804 6.30743 10.79 6.64076 10.9242 7.00829C11.0499 7.36726 11.117 7.73478 11.117 8.1194C11.117 8.85444 10.9493 9.46128 10.614 9.93991C10.2786 10.4185 9.80911 10.7775 9.26416 10.9826C8.69406 11.1963 8.06527 11.2732 7.3778 11.2732H7.37773C7.17656 11.2732 7.04244 11.2732 6.95861 11.2647C6.87477 11.2561 6.75739 11.2561 6.5981 11.2561V13.9997C6.60648 14.0596 6.56457 14.1108 6.50588 14.1194H6.47234H4.87941C4.81234 14.1194 4.77881 14.0852 4.77881 14.0083ZM6.60649 6.77752V9.64931L6.63164 9.65115H6.63166C6.73948 9.65904 6.84008 9.6664 6.93345 9.6664H7.3778C7.70477 9.6664 8.03174 9.61512 8.34194 9.51256C8.61022 9.43564 8.84497 9.27324 9.02941 9.05957C9.20547 8.84589 9.28931 8.55529 9.28931 8.17923C9.2977 7.91427 9.23063 7.64931 9.09649 7.41854C8.95396 7.19632 8.75275 7.02538 8.50962 6.93136C8.19941 6.80316 7.86406 6.75188 7.52032 6.76042C7.30234 6.76042 7.10952 6.76042 6.95022 6.76897C6.78255 6.76042 6.66517 6.76897 6.60649 6.77752ZM13.7914 7.28164H12.3242C12.3158 7.27309 12.2991 7.27309 12.2991 7.28164C12.2571 7.29019 12.232 7.33292 12.2404 7.37566L12.2424 7.39919C12.2585 7.58729 12.2739 7.76813 12.2739 7.95686C12.2781 8.06797 12.2802 8.17908 12.2823 8.29019C12.2844 8.4013 12.2865 8.51241 12.2907 8.62352C12.2991 8.84572 12.2991 9.05937 12.2991 9.26448V9.26455V13.9996V14.0338C12.3074 14.1022 12.3661 14.1449 12.4332 14.1363H14.0848C14.1603 14.1363 14.1938 14.1022 14.1938 14.0167V9.65771C14.3112 9.52096 14.4621 9.41839 14.6214 9.34147C14.8477 9.23891 15.0825 9.16198 15.3256 9.1107C15.6191 9.04233 15.9293 9.01668 16.2311 9.02523C16.3233 9.02523 16.3652 8.99959 16.3652 8.93121V7.26455V7.23036C16.3568 7.17053 16.3065 7.1278 16.2479 7.13634C15.8035 7.13634 15.3592 7.24745 14.9735 7.46968C14.6298 7.65771 14.328 7.90557 14.0764 8.20472C14.0764 8.09361 14.0681 7.99104 14.0597 7.89703C14.0513 7.81156 14.0345 7.71754 14.0177 7.63207C14.0094 7.55515 13.9926 7.48677 13.9674 7.41839C13.9423 7.34147 13.8752 7.28164 13.7914 7.28164Z" fill="#CCD2D7"/>
    <path d="M37.7832 12.0312H33.0176L31.9473 15H30.4004L34.7441 3.625H36.0566L40.4082 15H38.8691L37.7832 12.0312ZM33.4707 10.7969H37.3379L35.4004 5.47656L33.4707 10.7969ZM41.3613 10.7031C41.3613 9.40625 41.6686 8.36458 42.2832 7.57812C42.8978 6.78646 43.7025 6.39062 44.6973 6.39062C45.6868 6.39062 46.4707 6.72917 47.0488 7.40625V3H48.4941V15H47.166L47.0957 14.0938C46.5176 14.8021 45.7129 15.1562 44.6816 15.1562C43.7025 15.1562 42.903 14.7552 42.2832 13.9531C41.6686 13.151 41.3613 12.1042 41.3613 10.8125V10.7031ZM42.8066 10.8672C42.8066 11.8255 43.0046 12.5755 43.4004 13.1172C43.7962 13.6589 44.3431 13.9297 45.041 13.9297C45.9577 13.9297 46.627 13.5182 47.0488 12.6953V8.8125C46.6165 8.01562 45.9525 7.61719 45.0566 7.61719C44.3483 7.61719 43.7962 7.89062 43.4004 8.4375C43.0046 8.98438 42.8066 9.79427 42.8066 10.8672ZM50.3613 10.6953C50.3613 9.86719 50.5228 9.1224 50.8457 8.46094C51.1738 7.79948 51.627 7.28906 52.2051 6.92969C52.7884 6.57031 53.4525 6.39062 54.1973 6.39062C55.3483 6.39062 56.278 6.78906 56.9863 7.58594C57.6999 8.38281 58.0566 9.44271 58.0566 10.7656V10.8672C58.0566 11.6901 57.8978 12.4297 57.5801 13.0859C57.2676 13.737 56.8171 14.2448 56.2285 14.6094C55.6452 14.974 54.9733 15.1562 54.2129 15.1562C53.0671 15.1562 52.1374 14.7578 51.4238 13.9609C50.7155 13.1641 50.3613 12.1094 50.3613 10.7969V10.6953ZM51.8145 10.8672C51.8145 11.8047 52.0306 12.5573 52.4629 13.125C52.9004 13.6927 53.4837 13.9766 54.2129 13.9766C54.9473 13.9766 55.5306 13.6901 55.9629 13.1172C56.3952 12.5391 56.6113 11.7318 56.6113 10.6953C56.6113 9.76823 56.39 9.01823 55.9473 8.44531C55.5098 7.86719 54.9264 7.57812 54.1973 7.57812C53.4837 7.57812 52.9082 7.86198 52.4707 8.42969C52.0332 8.9974 51.8145 9.8099 51.8145 10.8672ZM67.0254 10.8672C67.0254 12.1589 66.7285 13.1979 66.1348 13.9844C65.541 14.7656 64.7441 15.1562 63.7441 15.1562C62.6764 15.1562 61.8509 14.7786 61.2676 14.0234L61.1973 15H59.8691V3H61.3145V7.47656C61.8978 6.7526 62.7025 6.39062 63.7285 6.39062C64.7546 6.39062 65.5592 6.77865 66.1426 7.55469C66.7311 8.33073 67.0254 9.39323 67.0254 10.7422V10.8672ZM65.5801 10.7031C65.5801 9.71875 65.39 8.95833 65.0098 8.42188C64.6296 7.88542 64.0827 7.61719 63.3691 7.61719C62.416 7.61719 61.7311 8.0599 61.3145 8.94531V12.6016C61.7572 13.487 62.4473 13.9297 63.3848 13.9297C64.0775 13.9297 64.6165 13.6615 65.002 13.125C65.3874 12.5885 65.5801 11.7812 65.5801 10.7031ZM72.3613 15.1562C71.2155 15.1562 70.2832 14.7812 69.5645 14.0312C68.8457 13.276 68.4863 12.2682 68.4863 11.0078V10.7422C68.4863 9.90365 68.6452 9.15625 68.9629 8.5C69.2858 7.83854 69.7337 7.32292 70.3066 6.95312C70.8848 6.57812 71.5098 6.39062 72.1816 6.39062C73.2806 6.39062 74.1348 6.7526 74.7441 7.47656C75.3535 8.20052 75.6582 9.23698 75.6582 10.5859V11.1875H69.9316C69.9525 12.0208 70.1947 12.6953 70.6582 13.2109C71.127 13.7214 71.7207 13.9766 72.4395 13.9766C72.9499 13.9766 73.3822 13.8724 73.7363 13.6641C74.0905 13.4557 74.4004 13.1797 74.666 12.8359L75.5488 13.5234C74.8405 14.612 73.778 15.1562 72.3613 15.1562ZM72.1816 7.57812C71.5983 7.57812 71.1087 7.79167 70.7129 8.21875C70.3171 8.64062 70.0723 9.23438 69.9785 10H74.2129V9.89062C74.1712 9.15625 73.9733 8.58854 73.6191 8.1875C73.265 7.78125 72.7858 7.57812 72.1816 7.57812ZM83.0332 10.5469V15H81.5332V3.625H85.7285C86.9733 3.625 87.9473 3.94271 88.6504 4.57812C89.3587 5.21354 89.7129 6.05469 89.7129 7.10156C89.7129 8.20573 89.3665 9.05729 88.6738 9.65625C87.9863 10.25 86.9993 10.5469 85.7129 10.5469H83.0332ZM83.0332 9.32031H85.7285C86.5306 9.32031 87.1452 9.13281 87.5723 8.75781C87.9993 8.3776 88.2129 7.83073 88.2129 7.11719C88.2129 6.4401 87.9993 5.89844 87.5723 5.49219C87.1452 5.08594 86.5592 4.875 85.8145 4.85938H83.0332V9.32031ZM95.4863 7.84375C95.2676 7.80729 95.0306 7.78906 94.7754 7.78906C93.8275 7.78906 93.1842 8.19271 92.8457 9V15H91.4004V6.54688H92.8066L92.8301 7.52344C93.304 6.76823 93.9759 6.39062 94.8457 6.39062C95.127 6.39062 95.3405 6.42708 95.4863 6.5V7.84375ZM100.174 15.1562C99.028 15.1562 98.0957 14.7812 97.377 14.0312C96.6582 13.276 96.2988 12.2682 96.2988 11.0078V10.7422C96.2988 9.90365 96.4577 9.15625 96.7754 8.5C97.0983 7.83854 97.5462 7.32292 98.1191 6.95312C98.6973 6.57812 99.3223 6.39062 99.9941 6.39062C101.093 6.39062 101.947 6.7526 102.557 7.47656C103.166 8.20052 103.471 9.23698 103.471 10.5859V11.1875H97.7441C97.765 12.0208 98.0072 12.6953 98.4707 13.2109C98.9395 13.7214 99.5332 13.9766 100.252 13.9766C100.762 13.9766 101.195 13.8724 101.549 13.6641C101.903 13.4557 102.213 13.1797 102.479 12.8359L103.361 13.5234C102.653 14.612 101.59 15.1562 100.174 15.1562ZM99.9941 7.57812C99.4108 7.57812 98.9212 7.79167 98.5254 8.21875C98.1296 8.64062 97.8848 9.23438 97.791 10H102.025V9.89062C101.984 9.15625 101.786 8.58854 101.432 8.1875C101.077 7.78125 100.598 7.57812 99.9941 7.57812ZM106.51 6.54688L106.549 7.48438C107.169 6.75521 108.005 6.39062 109.057 6.39062C110.239 6.39062 111.044 6.84375 111.471 7.75C111.752 7.34375 112.117 7.01562 112.564 6.76562C113.018 6.51562 113.551 6.39062 114.166 6.39062C116.02 6.39062 116.963 7.3724 116.994 9.33594V15H115.549V9.42188C115.549 8.81771 115.411 8.36719 115.135 8.07031C114.859 7.76823 114.395 7.61719 113.744 7.61719C113.208 7.61719 112.762 7.77865 112.408 8.10156C112.054 8.41927 111.848 8.84896 111.791 9.39062V15H110.338V9.46094C110.338 8.23177 109.736 7.61719 108.533 7.61719C107.585 7.61719 106.937 8.02083 106.588 8.82812V15H105.143V6.54688H106.51ZM120.752 15H119.307V6.54688H120.752V15ZM119.189 4.30469C119.189 4.07031 119.26 3.8724 119.4 3.71094C119.546 3.54948 119.76 3.46875 120.041 3.46875C120.322 3.46875 120.536 3.54948 120.682 3.71094C120.827 3.8724 120.9 4.07031 120.9 4.30469C120.9 4.53906 120.827 4.73438 120.682 4.89062C120.536 5.04688 120.322 5.125 120.041 5.125C119.76 5.125 119.546 5.04688 119.4 4.89062C119.26 4.73438 119.189 4.53906 119.189 4.30469ZM126.58 15.1562C125.434 15.1562 124.502 14.7812 123.783 14.0312C123.064 13.276 122.705 12.2682 122.705 11.0078V10.7422C122.705 9.90365 122.864 9.15625 123.182 8.5C123.505 7.83854 123.952 7.32292 124.525 6.95312C125.104 6.57812 125.729 6.39062 126.4 6.39062C127.499 6.39062 128.354 6.7526 128.963 7.47656C129.572 8.20052 129.877 9.23698 129.877 10.5859V11.1875H124.15C124.171 12.0208 124.413 12.6953 124.877 13.2109C125.346 13.7214 125.939 13.9766 126.658 13.9766C127.169 13.9766 127.601 13.8724 127.955 13.6641C128.309 13.4557 128.619 13.1797 128.885 12.8359L129.768 13.5234C129.059 14.612 127.997 15.1562 126.58 15.1562ZM126.4 7.57812C125.817 7.57812 125.327 7.79167 124.932 8.21875C124.536 8.64062 124.291 9.23438 124.197 10H128.432V9.89062C128.39 9.15625 128.192 8.58854 127.838 8.1875C127.484 7.78125 127.005 7.57812 126.4 7.57812ZM135.643 7.84375C135.424 7.80729 135.187 7.78906 134.932 7.78906C133.984 7.78906 133.34 8.19271 133.002 9V15H131.557V6.54688H132.963L132.986 7.52344C133.46 6.76823 134.132 6.39062 135.002 6.39062C135.283 6.39062 135.497 6.42708 135.643 6.5V7.84375ZM142.674 10.5469V15H141.174V3.625H145.369C146.614 3.625 147.588 3.94271 148.291 4.57812C148.999 5.21354 149.354 6.05469 149.354 7.10156C149.354 8.20573 149.007 9.05729 148.314 9.65625C147.627 10.25 146.64 10.5469 145.354 10.5469H142.674ZM142.674 9.32031H145.369C146.171 9.32031 146.786 9.13281 147.213 8.75781C147.64 8.3776 147.854 7.83073 147.854 7.11719C147.854 6.4401 147.64 5.89844 147.213 5.49219C146.786 5.08594 146.2 4.875 145.455 4.85938H142.674V9.32031ZM155.127 7.84375C154.908 7.80729 154.671 7.78906 154.416 7.78906C153.468 7.78906 152.825 8.19271 152.486 9V15H151.041V6.54688H152.447L152.471 7.52344C152.945 6.76823 153.617 6.39062 154.486 6.39062C154.768 6.39062 154.981 6.42708 155.127 6.5V7.84375ZM155.924 10.6953C155.924 9.86719 156.085 9.1224 156.408 8.46094C156.736 7.79948 157.189 7.28906 157.768 6.92969C158.351 6.57031 159.015 6.39062 159.76 6.39062C160.911 6.39062 161.84 6.78906 162.549 7.58594C163.262 8.38281 163.619 9.44271 163.619 10.7656V10.8672C163.619 11.6901 163.46 12.4297 163.143 13.0859C162.83 13.737 162.38 14.2448 161.791 14.6094C161.208 14.974 160.536 15.1562 159.775 15.1562C158.63 15.1562 157.7 14.7578 156.986 13.9609C156.278 13.1641 155.924 12.1094 155.924 10.7969V10.6953ZM157.377 10.8672C157.377 11.8047 157.593 12.5573 158.025 13.125C158.463 13.6927 159.046 13.9766 159.775 13.9766C160.51 13.9766 161.093 13.6901 161.525 13.1172C161.958 12.5391 162.174 11.7318 162.174 10.6953C162.174 9.76823 161.952 9.01823 161.51 8.44531C161.072 7.86719 160.489 7.57812 159.76 7.57812C159.046 7.57812 158.471 7.86198 158.033 8.42969C157.596 8.9974 157.377 9.8099 157.377 10.8672Z" fill="#CCD2D7"/>
</svg>
