<svg width="71" height="22" viewBox="0 0 71 22" fill="none" xmlns="http://www.w3.org/2000/svg">
<g clip-path="url(#clip0_4_171)">
<path fill-rule="evenodd" clip-rule="evenodd" d="M19.3362 18.8789L8.97723 -1.98582L-1.22491 18.956L19.3362 18.8789ZM14.0454 15.3219L9.00403 5.16778L4.03901 15.3594L14.0454 15.3219Z" fill="#CCD2D7"/>
</g>
<path d="M35.7256 17L34.3193 13.375H29.7412L28.3428 17H26.999L31.4678 5.53125H32.6631L37.1006 17H35.7256ZM33.9209 12.1953L32.585 8.59375C32.5537 8.5 32.5016 8.34635 32.4287 8.13281C32.361 7.91927 32.2907 7.69792 32.2178 7.46875C32.1449 7.23958 32.085 7.05469 32.0381 6.91406C31.986 7.1276 31.9287 7.34115 31.8662 7.55469C31.8089 7.76302 31.7516 7.95833 31.6943 8.14062C31.637 8.31771 31.5876 8.46875 31.5459 8.59375L30.1865 12.1953H33.9209ZM42.3818 8.28125C42.5537 8.28125 42.7334 8.29167 42.9209 8.3125C43.1084 8.32812 43.2751 8.35156 43.4209 8.38281L43.2568 9.58594C43.1162 9.54948 42.96 9.52083 42.7881 9.5C42.6162 9.47917 42.4548 9.46875 42.3037 9.46875C41.96 9.46875 41.6344 9.53906 41.3271 9.67969C41.0251 9.8151 40.7594 10.013 40.5303 10.2734C40.3011 10.5286 40.1214 10.8385 39.9912 11.2031C39.861 11.5625 39.7959 11.9635 39.7959 12.4062V17H38.4912V8.4375H39.5693L39.71 10.0156H39.7646C39.9417 9.69792 40.1553 9.40885 40.4053 9.14844C40.6553 8.88281 40.9443 8.67188 41.2725 8.51562C41.6058 8.35938 41.9756 8.28125 42.3818 8.28125ZM47.8037 16.0938C48.0173 16.0938 48.236 16.0755 48.46 16.0391C48.6839 16.0026 48.8662 15.9583 49.0068 15.9062V16.9141C48.8558 16.9818 48.6449 17.0391 48.374 17.0859C48.1084 17.1328 47.848 17.1562 47.5928 17.1562C47.1396 17.1562 46.7282 17.0781 46.3584 16.9219C45.9886 16.7604 45.6917 16.4896 45.4678 16.1094C45.249 15.7292 45.1396 15.2031 45.1396 14.5312V9.45312H43.9209V8.82031L45.1475 8.3125L45.6631 6.45312H46.4443V8.4375H48.9521V9.45312H46.4443V14.4922C46.4443 15.0286 46.5667 15.4297 46.8115 15.6953C47.0615 15.9609 47.3923 16.0938 47.8037 16.0938ZM52.0459 17H50.7412V4.84375H52.0459V17ZM56.085 8.4375V17H54.7881V8.4375H56.085ZM55.4521 5.23438C55.6657 5.23438 55.848 5.30469 55.999 5.44531C56.1553 5.58073 56.2334 5.79427 56.2334 6.08594C56.2334 6.3724 56.1553 6.58594 55.999 6.72656C55.848 6.86719 55.6657 6.9375 55.4521 6.9375C55.2282 6.9375 55.0407 6.86719 54.8896 6.72656C54.7438 6.58594 54.6709 6.3724 54.6709 6.08594C54.6709 5.79427 54.7438 5.58073 54.8896 5.44531C55.0407 5.30469 55.2282 5.23438 55.4521 5.23438ZM64.374 14.6562C64.374 15.2031 64.236 15.6641 63.96 16.0391C63.6891 16.4089 63.2985 16.6875 62.7881 16.875C62.2829 17.0625 61.6787 17.1562 60.9756 17.1562C60.3766 17.1562 59.8584 17.1094 59.4209 17.0156C58.9834 16.9219 58.6006 16.7891 58.2725 16.6172V15.4219C58.6214 15.5938 59.0381 15.75 59.5225 15.8906C60.0068 16.0312 60.5016 16.1016 61.0068 16.1016C61.7464 16.1016 62.2829 15.9818 62.6162 15.7422C62.9495 15.5026 63.1162 15.1771 63.1162 14.7656C63.1162 14.5312 63.0485 14.3255 62.9131 14.1484C62.7829 13.9661 62.5615 13.7917 62.249 13.625C61.9365 13.4531 61.5042 13.2656 60.9521 13.0625C60.4053 12.8542 59.9313 12.6484 59.5303 12.4453C59.1344 12.237 58.8271 11.9844 58.6084 11.6875C58.3949 11.3906 58.2881 11.0052 58.2881 10.5312C58.2881 9.80729 58.5798 9.2526 59.1631 8.86719C59.7516 8.47656 60.5225 8.28125 61.4756 8.28125C61.9912 8.28125 62.473 8.33333 62.9209 8.4375C63.374 8.53646 63.7959 8.67188 64.1865 8.84375L63.749 9.88281C63.3949 9.73177 63.0173 9.60417 62.6162 9.5C62.2152 9.39583 61.8063 9.34375 61.3896 9.34375C60.7907 9.34375 60.3298 9.44271 60.0068 9.64062C59.6891 9.83854 59.5303 10.1094 59.5303 10.4531C59.5303 10.7188 59.6032 10.9375 59.749 11.1094C59.9001 11.2812 60.1396 11.4427 60.4678 11.5938C60.7959 11.7448 61.2282 11.9219 61.7646 12.125C62.3011 12.3229 62.7646 12.5286 63.1553 12.7422C63.5459 12.9505 63.8454 13.2057 64.0537 13.5078C64.2673 13.8047 64.374 14.1875 64.374 14.6562ZM69.2256 16.0938C69.4391 16.0938 69.6579 16.0755 69.8818 16.0391C70.1058 16.0026 70.2881 15.9583 70.4287 15.9062V16.9141C70.2777 16.9818 70.0667 17.0391 69.7959 17.0859C69.5303 17.1328 69.2699 17.1562 69.0146 17.1562C68.5615 17.1562 68.1501 17.0781 67.7803 16.9219C67.4105 16.7604 67.1136 16.4896 66.8896 16.1094C66.6709 15.7292 66.5615 15.2031 66.5615 14.5312V9.45312H65.3428V8.82031L66.5693 8.3125L67.085 6.45312H67.8662V8.4375H70.374V9.45312H67.8662V14.4922C67.8662 15.0286 67.9886 15.4297 68.2334 15.6953C68.4834 15.9609 68.8141 16.0938 69.2256 16.0938Z" fill="#CCD2D7"/>
<defs>
<clipPath id="clip0_4_171">
<rect width="18" height="20" fill="white"/>
</clipPath>
</defs>
</svg>
