<svg width="21" height="20" viewBox="0 0 21 20" fill="none" xmlns="http://www.w3.org/2000/svg">
<path d="M16.0124 4.75843C15.6711 4.43343 15.1199 4.43343 14.7786 4.75843L10.4999 8.8251L6.22113 4.7501C5.87988 4.4251 5.32863 4.4251 4.98738 4.7501C4.64613 5.0751 4.64613 5.6001 4.98738 5.9251L9.26613 10.0001L4.98738 14.0751C4.64613 14.4001 4.64613 14.9251 4.98738 15.2501C5.32863 15.5751 5.87988 15.5751 6.22113 15.2501L10.4999 11.1751L14.7786 15.2501C15.1199 15.5751 15.6711 15.5751 16.0124 15.2501C16.3536 14.9251 16.3536 14.4001 16.0124 14.0751L11.7336 10.0001L16.0124 5.9251C16.3449 5.60843 16.3449 5.0751 16.0124 4.75843Z" fill="white"/>
</svg>
