<svg width="96" height="23" viewBox="0 0 96 23" fill="none" xmlns="http://www.w3.org/2000/svg">
<g clip-path="url(#clip0_4_187)">
<path d="M15.7074 0.839228C15.5664 0.853321 15.4236 0.886255 15.2849 0.940762L1.95231 6.17053C1.56597 6.32176 1.25522 6.61939 1.09237 6.99827C0.935617 7.36303 0.930089 7.77619 1.07962 8.14467L1.43419 9.14443C1.43928 9.15812 1.44511 9.17153 1.45165 9.1846C1.45256 9.18926 1.45355 9.19391 1.45463 9.19853L4.37411 20.1231C4.56677 20.846 5.26971 21.3171 6.01859 21.2422C6.10011 21.2341 6.18146 21.2192 6.26172 21.1982L9.26293 20.415L20.0891 17.5955C20.4895 17.4913 20.832 17.234 21.0392 16.8782C21.2397 16.5339 21.2959 16.1239 21.1935 15.7398L18.2728 4.8106C18.2454 4.70764 18.1783 4.61972 18.0862 4.56608C17.9942 4.51245 17.8846 4.49746 17.7815 4.52439L6.88235 7.36542L17.3833 3.05608C17.4821 3.01561 17.5608 2.9376 17.6021 2.83917C17.6434 2.74074 17.644 2.62994 17.6037 2.53109L17.2971 1.78197C17.0366 1.1384 16.3745 0.772551 15.7074 0.839228ZM15.7875 1.64103C16.1138 1.60842 16.4285 1.78386 16.5498 2.08362C16.5501 2.08412 16.5505 2.08462 16.5508 2.08511L16.6997 2.45141L15.0463 1.90016L15.5798 1.69105C15.6484 1.66411 15.7177 1.64801 15.7875 1.64103ZM12.8409 2.76511L14.5626 3.34275L12.4158 4.22398L10.6295 3.63225L12.8409 2.76511ZM8.42337 4.49806L10.2567 5.1096L8.1054 5.99287L6.22105 5.36191L8.42337 4.49806ZM4.00581 6.23101L5.95021 6.87732L3.79651 7.76083L1.94051 7.14443C2.01918 7.04778 2.12017 6.97029 2.24636 6.9209L4.00581 6.23101ZM17.5975 5.40557L20.4156 15.948C20.4632 16.1277 20.4389 16.3079 20.343 16.4725C20.2433 16.6438 20.0865 16.7633 19.8862 16.8155L9.06002 19.635L6.0581 20.419C6.05784 20.419 6.05758 20.419 6.05732 20.4191C6.01869 20.4292 5.97775 20.4365 5.93846 20.4404C5.56321 20.4779 5.24402 20.2575 5.1529 19.9155L2.66562 10.6093L3.82103 8.99523L6.1148 8.39745L4.9164 10.072L7.21721 9.47352L8.41239 7.7985L10.7001 7.20291L9.50549 8.87628L11.7985 8.27858L12.9969 6.60403L15.2876 6.00735L14.0954 7.68048L16.3844 7.08317L16.3883 7.08278L17.5829 5.40941L17.5975 5.40557ZM16.9787 7.75925L4.05793 11.1281C3.95418 11.1555 3.86556 11.222 3.81167 11.3149C3.75778 11.4077 3.74261 11.5182 3.77039 11.6219L5.80643 19.2381C5.85813 19.4314 6.04148 19.5547 6.23471 19.5354C6.25556 19.5333 6.27596 19.5298 6.29688 19.5244L19.2179 16.1579C19.3217 16.1309 19.4103 16.064 19.4641 15.9711C19.518 15.8783 19.5332 15.7678 19.5054 15.6641L17.4691 8.04476C17.412 7.8306 17.1932 7.70582 16.9787 7.75925Z" fill="#CCD2D7"/>
</g>
<path d="M33.3899 18H32.0618V6.57814H38.4211V7.75002H33.3899V11.9375H38.1165V13.1016H33.3899V18ZM41.429 9.43752V18H40.1321V9.43752H41.429ZM40.7961 6.23439C41.0097 6.23439 41.192 6.3047 41.343 6.44533C41.4993 6.58074 41.5774 6.79429 41.5774 7.08595C41.5774 7.37241 41.4993 7.58595 41.343 7.72658C41.192 7.8672 41.0097 7.93752 40.7961 7.93752C40.5722 7.93752 40.3847 7.8672 40.2336 7.72658C40.0878 7.58595 40.0149 7.37241 40.0149 7.08595C40.0149 6.79429 40.0878 6.58074 40.2336 6.44533C40.3847 6.3047 40.5722 6.23439 40.7961 6.23439ZM48.2336 9.28127C49.2493 9.28127 50.0175 9.53127 50.5383 10.0313C51.0592 10.5261 51.3196 11.3229 51.3196 12.4219V18H50.0383V12.5078C50.0383 11.7943 49.8743 11.2604 49.5461 10.9063C49.2232 10.5521 48.7258 10.375 48.054 10.375C47.106 10.375 46.4394 10.6432 46.054 11.1797C45.6685 11.7162 45.4758 12.4948 45.4758 13.5156V18H44.179V9.43752H45.2258L45.4211 10.6719H45.4915C45.6737 10.3698 45.9055 10.1172 46.1868 9.91408C46.468 9.70574 46.7831 9.54949 47.1321 9.44533C47.481 9.33595 47.8482 9.28127 48.2336 9.28127ZM57.1946 9.29689C58.2154 9.29689 58.9732 9.52606 59.468 9.98439C59.9628 10.4427 60.2102 11.1745 60.2102 12.1797V18H59.2649L59.0149 16.7344H58.9524C58.7128 17.0469 58.4628 17.3099 58.2024 17.5235C57.942 17.7318 57.6399 17.8906 57.2961 18C56.9576 18.1042 56.5409 18.1563 56.0461 18.1563C55.5253 18.1563 55.0618 18.0651 54.6555 17.8828C54.2545 17.7005 53.9368 17.4245 53.7024 17.0547C53.4732 16.6849 53.3586 16.2162 53.3586 15.6485C53.3586 14.7943 53.6972 14.138 54.3743 13.6797C55.0514 13.2214 56.0826 12.9714 57.468 12.9297L58.9446 12.8672V12.3438C58.9446 11.6042 58.7857 11.086 58.468 10.7891C58.1503 10.4922 57.7024 10.3438 57.1243 10.3438C56.6764 10.3438 56.2493 10.4089 55.843 10.5391C55.4368 10.6693 55.0514 10.8229 54.6868 11L54.2883 10.0156C54.6737 9.81772 55.1165 9.64845 55.6165 9.50783C56.1165 9.3672 56.6425 9.29689 57.1946 9.29689ZM58.929 13.7813L57.6243 13.836C56.5566 13.8776 55.804 14.0521 55.3665 14.3594C54.929 14.6667 54.7102 15.1016 54.7102 15.6641C54.7102 16.1537 54.8586 16.5156 55.1555 16.75C55.4524 16.9844 55.8456 17.1016 56.3352 17.1016C57.0956 17.1016 57.718 16.8906 58.2024 16.4688C58.6868 16.0469 58.929 15.4141 58.929 14.5703V13.7813ZM64.1868 18H62.8821V5.84377H64.1868V18ZM76.1633 7.58595C75.5331 7.58595 74.9654 7.69533 74.4602 7.91408C73.9602 8.12762 73.5331 8.44012 73.179 8.85158C72.83 9.25783 72.5618 9.75002 72.3743 10.3281C72.1868 10.9063 72.093 11.5573 72.093 12.2813C72.093 13.2396 72.2415 14.0729 72.5383 14.7813C72.8404 15.4844 73.2883 16.0287 73.8821 16.4141C74.481 16.7995 75.2284 16.9922 76.1243 16.9922C76.6347 16.9922 77.1139 16.9505 77.5618 16.8672C78.0149 16.7787 78.455 16.6693 78.8821 16.5391V17.6953C78.4654 17.8516 78.0279 17.9662 77.5696 18.0391C77.1112 18.1172 76.567 18.1563 75.9368 18.1563C74.7753 18.1563 73.804 17.9167 73.0227 17.4375C72.2467 16.9531 71.6633 16.2708 71.2727 15.3906C70.8873 14.5104 70.6946 13.4714 70.6946 12.2735C70.6946 11.4089 70.8144 10.6198 71.054 9.90627C71.2987 9.18752 71.6529 8.56772 72.1165 8.04689C72.5852 7.52606 73.1581 7.12502 73.8352 6.84377C74.5175 6.55731 75.2987 6.41408 76.179 6.41408C76.7571 6.41408 77.3144 6.47137 77.8508 6.58595C78.3873 6.70054 78.8717 6.8646 79.304 7.07814L78.7727 8.20314C78.4081 8.03647 78.0071 7.89324 77.5696 7.77345C77.1373 7.64845 76.6685 7.58595 76.1633 7.58595ZM88.2336 9.43752V18H87.1711L86.9836 16.7969H86.9133C86.7362 17.0938 86.5071 17.3438 86.2258 17.5469C85.9446 17.75 85.6269 17.9011 85.2727 18C84.9237 18.1042 84.5514 18.1563 84.1555 18.1563C83.4784 18.1563 82.9107 18.0469 82.4524 17.8281C81.9941 17.6094 81.6477 17.2708 81.4133 16.8125C81.1842 16.3542 81.0696 15.7656 81.0696 15.0469V9.43752H82.3821V14.9531C82.3821 15.6667 82.5435 16.2005 82.8665 16.5547C83.1894 16.9037 83.6816 17.0781 84.343 17.0781C84.9784 17.0781 85.4836 16.9583 85.8586 16.7188C86.2389 16.4792 86.5123 16.1276 86.679 15.6641C86.8456 15.1953 86.929 14.6224 86.929 13.9453V9.43752H88.2336ZM93.7415 17.0938C93.955 17.0938 94.1737 17.0755 94.3977 17.0391C94.6217 17.0026 94.804 16.9583 94.9446 16.9063V17.9141C94.7935 17.9818 94.5826 18.0391 94.3118 18.086C94.0461 18.1328 93.7857 18.1563 93.5305 18.1563C93.0774 18.1563 92.6659 18.0781 92.2961 17.9219C91.9264 17.7604 91.6295 17.4896 91.4055 17.1094C91.1868 16.7292 91.0774 16.2031 91.0774 15.5313V10.4531H89.8586V9.82033L91.0852 9.31252L91.6008 7.45314H92.3821V9.43752H94.8899V10.4531H92.3821V15.4922C92.3821 16.0287 92.5045 16.4297 92.7493 16.6953C92.9993 16.961 93.33 17.0938 93.7415 17.0938Z" fill="#CCD2D7"/>
<defs>
<clipPath id="clip0_4_187">
<rect width="20.1449" height="20.1449" fill="white" transform="translate(0 2.00343) rotate(-5.70758)"/>
</clipPath>
</defs>
</svg>
