<svg width="92" height="20" viewBox="0 0 92 20" fill="none" xmlns="http://www.w3.org/2000/svg">
<path d="M0.892097 0.000244141H0.900238C1.22044 0.00224661 1.5291 0.171122 1.6892 0.467487C3.27794 3.39865 4.10965 6.66928 4.11104 9.99123H4.11172V10.0099C4.11036 13.2806 3.30308 16.5513 1.6892 19.5337C1.61271 19.6745 1.4988 19.7923 1.35962 19.8745C1.22043 19.9567 1.0612 20.0001 0.898881 20.0002H0.892776C0.75235 20.0002 0.609889 19.9669 0.477604 19.8981C0.373697 19.8447 0.281561 19.7716 0.206502 19.683C0.131443 19.5943 0.0749452 19.492 0.0402637 19.3818C0.00558216 19.2716 -0.00659785 19.1558 0.00442535 19.0409C0.0154485 18.9261 0.0494571 18.8145 0.104492 18.7127C1.55799 16.0313 2.31829 13.0391 2.31829 10.0002C2.31829 6.96134 1.55799 3.96917 0.104492 1.28783C0.0494571 1.18598 0.0154485 1.07442 0.00442535 0.959573C-0.00659785 0.84473 0.00558216 0.728876 0.0402637 0.618685C0.0749452 0.508493 0.131443 0.406143 0.206502 0.31753C0.281561 0.228917 0.373697 0.155793 0.477604 0.10237C0.605166 0.0360215 0.747133 0.000985157 0.891419 0.000244141H0.892097ZM5.61027 2.17226C5.8295 2.08305 6.07568 2.08274 6.29515 2.17139C6.51461 2.26004 6.68956 2.43046 6.78184 2.64551C7.77103 4.97442 8.27906 7.4738 8.27633 9.99791V10.0032C8.27633 12.5384 7.77364 15.0114 6.78184 17.3543C6.59189 17.8015 6.0675 18.0138 5.61027 17.8282C5.50178 17.7846 5.40313 17.7203 5.31997 17.6391C5.23682 17.5578 5.17081 17.4612 5.12574 17.3547C5.08066 17.2483 5.05741 17.1341 5.05732 17.0188C5.05724 16.9035 5.08031 16.7893 5.12522 16.6828C6.02306 14.5691 6.48472 12.3008 6.48335 10.0099V10.0006V9.99123C6.48479 7.70012 6.02313 5.43159 5.12522 3.31767C4.93528 2.87045 5.15236 2.35715 5.61027 2.17226ZM10.6575 4.58457C10.8881 4.52944 11.1316 4.56667 11.3343 4.68808C11.5371 4.80948 11.6826 5.00513 11.7388 5.23203C12.1207 6.78928 12.3114 8.38993 12.312 9.99123V10.0099C12.312 11.6106 12.1207 13.2112 11.7381 14.7678C11.6816 14.9944 11.5361 15.1897 11.3336 15.311C11.1311 15.4323 10.888 15.4698 10.6575 15.4153C10.5433 15.3889 10.4356 15.3406 10.3405 15.2732C10.2453 15.2058 10.1647 15.1205 10.1031 15.0223C10.0415 14.9242 10.0002 14.815 9.98163 14.7011C9.96303 14.5872 9.96746 14.4708 9.99468 14.3586C10.344 12.9312 10.52 11.4681 10.5191 9.99991C10.5191 8.5341 10.3447 7.06763 9.99468 5.64254C9.96726 5.53024 9.96268 5.41371 9.98118 5.29966C9.99969 5.18561 10.0409 5.07628 10.1025 4.97797C10.1641 4.87965 10.2448 4.79428 10.3401 4.72677C10.4353 4.65925 10.5432 4.61093 10.6575 4.58457ZM14.9306 7.14439C15.0489 7.12201 15.1705 7.12334 15.2883 7.14829C15.406 7.17324 15.5174 7.2213 15.6158 7.2896C15.7142 7.3579 15.7976 7.44503 15.8611 7.54578C15.9245 7.64653 15.9665 7.75883 15.9848 7.87596C16.092 8.57816 16.1429 9.28436 16.1375 9.99123V10.0099C16.1428 10.7176 16.0918 11.4247 15.9848 12.1245C15.9665 12.2416 15.9243 12.3539 15.8609 12.4546C15.7974 12.5553 15.714 12.6424 15.6156 12.7107C15.5173 12.7789 15.4059 12.827 15.2882 12.852C15.1705 12.877 15.0489 12.8784 14.9306 12.8561C14.4557 12.7687 14.1437 12.3154 14.2142 11.8469C14.3065 11.2368 14.3499 10.6233 14.3438 10.0099V10.0006V9.99123C14.3494 9.37631 14.3061 8.7619 14.2142 8.15363C14.145 7.6964 14.4666 7.22983 14.9306 7.14439ZM17.8972 10.0099C17.8972 9.45791 18.3544 9.01069 18.9188 9.01069C19.4826 9.01069 19.9398 9.45791 19.9398 10.0099C19.9398 10.5613 19.4826 11.0085 18.9188 11.0085C18.3544 11.0085 17.8972 10.5613 17.8972 10.0099Z" fill="#CCD2D7"/>
<path fill-rule="evenodd" clip-rule="evenodd" d="M31.2911 5.2567V9.72688H36.474C36.5283 9.88641 36.5459 10.0273 36.5459 10.1868C36.5459 10.3276 36.5276 10.4691 36.4747 10.628H31.2911V15.6816C31.1134 15.7169 30.954 15.7523 30.7939 15.7523C30.6345 15.7523 30.475 15.7169 30.2966 15.6816V4.33824H37.1314C37.1666 4.4971 37.185 4.65596 37.185 4.81483C37.185 4.95633 37.1666 5.1152 37.1314 5.2567H31.2905H31.2911ZM43.6106 8.27843C43.167 8.15428 42.688 8.08419 42.0483 8.08419C41.161 8.08419 40.3618 8.33116 39.8653 8.64955V15.6816C39.5378 15.7515 39.1989 15.7515 38.8714 15.6816V8.20768C39.5457 7.66034 40.7349 7.1477 42.1372 7.1477C42.8651 7.1477 43.38 7.23581 43.8596 7.4127C43.8772 7.71307 43.7884 8.04881 43.6106 8.27843ZM48.1199 15.0101C49.1496 15.0101 49.9841 14.8158 50.5519 14.5862V12.1125C49.9128 11.7767 49.0072 11.5118 48.0133 11.5118C46.5399 11.5118 45.6702 12.1125 45.6702 13.1551C45.6702 14.2498 46.487 15.0107 48.1192 15.0107L48.1199 15.0101ZM51.5104 10.2749V15.1342C50.6407 15.6108 49.2378 15.8938 48.1022 15.8938C45.7591 15.8938 44.6581 14.7631 44.6581 13.2259C44.6581 11.5291 46.1139 10.628 48.0133 10.628C49.0784 10.628 49.9305 10.875 50.5519 11.1753V10.3103C50.5519 8.77304 49.5574 8.06617 48.0486 8.06617C46.9483 8.06617 46.1491 8.43729 45.5454 8.87917C45.4168 8.81536 45.3051 8.72307 45.2189 8.60957C45.1327 8.49606 45.0745 8.36443 45.0488 8.22503C45.4572 7.83655 46.5399 7.1477 48.0846 7.1477C49.9841 7.1477 51.5104 8.03079 51.5104 10.2749ZM66.2043 10.3984V15.6816C66.0442 15.7169 65.8847 15.735 65.707 15.735C65.5397 15.7356 65.3729 15.7177 65.2097 15.6816V10.7521C65.2457 9.30303 64.606 8.06617 62.7248 8.06617C61.6598 8.06617 60.8077 8.5788 60.2392 9.10879C60.3817 9.51529 60.4522 9.93914 60.4522 10.3984V15.6816C60.3104 15.7169 60.1334 15.735 59.9733 15.735C59.7955 15.735 59.6178 15.7169 59.476 15.6816V10.7521C59.476 9.30303 58.8723 8.06617 57.0087 8.06617C56.0678 8.06617 55.1975 8.43729 54.6656 8.77304V15.6816C54.3379 15.7516 53.9988 15.7516 53.6711 15.6816V8.34918C54.399 7.74844 55.6771 7.1477 57.1682 7.1477C58.411 7.1477 59.2983 7.62429 59.8491 8.36654C60.577 7.69504 61.6774 7.1477 62.9019 7.1477C65.0863 7.1477 66.2395 8.61418 66.2043 10.3984ZM74.5247 10.8756C74.5247 9.12681 73.4772 8.03079 71.9332 8.03079C70.282 8.03079 69.1817 9.26765 69.0216 10.8756H74.5247ZM75.5192 11.706H68.9863C69.0392 13.6851 70.2108 14.9927 72.075 14.9927C73.4772 14.9927 74.2051 14.4627 74.7024 14.0736C74.9507 14.1971 75.1637 14.4801 75.2349 14.7451C74.5606 15.3104 73.5661 15.8932 72.075 15.8932C69.6783 15.8932 67.9742 14.3032 67.9742 11.5471C67.9742 8.87917 69.7671 7.1477 71.9332 7.1477C73.9752 7.1477 75.5544 8.56078 75.5721 11.0171C75.5721 11.2821 75.5544 11.4056 75.5192 11.706ZM80.8526 15.6816V7.37799C81.0127 7.32459 81.1898 7.30723 81.3499 7.30723C81.5093 7.30723 81.6871 7.32459 81.8288 7.37799V15.6816C81.6871 15.7169 81.51 15.735 81.3499 15.735C81.1827 15.7347 81.016 15.7168 80.8526 15.6816ZM80.5508 4.9036C80.5508 4.47908 80.9062 4.12598 81.3499 4.12598C81.7759 4.12598 82.1131 4.47975 82.1131 4.9036C82.1131 5.34548 81.7759 5.68056 81.3499 5.68056C81.1393 5.68145 80.937 5.60017 80.7872 5.45454C80.6374 5.30891 80.5524 5.11079 80.5508 4.9036ZM77.4729 14.8185C77.4729 14.3946 77.8277 14.0415 78.2714 14.0415C78.6974 14.0415 79.0352 14.3953 79.0352 14.8185C79.0352 15.2604 78.6974 15.5961 78.2714 15.5961C78.0608 15.5968 77.8585 15.5154 77.7089 15.3696C77.5592 15.2239 77.4744 15.0257 77.4729 14.8185ZM91.006 11.5111C91.006 9.56802 89.7639 8.06617 87.7932 8.06617C85.8225 8.06617 84.5804 9.56802 84.5804 11.5111C84.5804 13.4902 85.8225 14.9567 87.7932 14.9567C89.7639 14.9567 91.006 13.4902 91.006 11.5111ZM83.5682 11.5111C83.5682 9.02001 85.3965 7.14704 87.8108 7.14704C90.2605 7.14704 92.0006 9.02001 92.0006 11.5111C92.0006 14.0028 90.1716 15.8758 87.7579 15.8758C85.3076 15.8758 83.5682 14.0382 83.5682 11.5111Z" fill="#CCD2D7"/>
</svg>
