<svg width="20" height="35" viewBox="0 0 20 35" fill="none" xmlns="http://www.w3.org/2000/svg">
    <mask id="mask0" maskUnits="userSpaceOnUse" x="0" y="0" width="20" height="35">
        <path fill-rule="evenodd" clip-rule="evenodd"
              d="M19 10V25C19 29.9706 14.9706 34 10 34C5.02944 34 1 29.9706 1 25V10C1 5.02944 5.02944 1 10 1C14.9706 1 19 5.02944 19 10ZM0 10C0 4.47715 4.47715 0 10 0C15.5228 0 20 4.47715 20 10V25C20 30.5228 15.5228 35 10 35C4.47715 35 0 30.5228 0 25V10ZM10 12C11.1046 12 12 11.1046 12 10C12 8.89543 11.1046 8 10 8C8.89543 8 8 8.89543 8 10C8 11.1046 8.89543 12 10 12Z"
              fill="#C7C7C7"/>
    </mask>
    <g mask="url(#mask0)">
        <rect width="20" height="35" fill="#C7C7C7"/>
    </g>
</svg>
