<svg width="120" height="20" viewBox="0 0 120 20" fill="none" xmlns="http://www.w3.org/2000/svg">
    <path fill-rule="evenodd" clip-rule="evenodd" d="M20.2004 10C20.2004 15.5228 15.6784 20 10.1002 20C4.52202 20 0 15.5228 0 10C0 4.47715 4.52202 0 10.1002 0C15.6784 0 20.2004 4.47715 20.2004 10ZM9.54098 11.5714V4.5C7.57377 4.5 6 6.07143 6 8.03571C6 10 7.57377 11.5714 9.54098 11.5714ZM10.459 8.42857V15.5C12.4262 15.5 14 13.9286 14 11.9643C14 10 12.4262 8.42857 10.459 8.42857ZM13.8033 6.16964C13.8033 5.25298 13.0492 4.5 12.1311 4.5C11.2131 4.5 10.459 5.25298 10.459 6.16964C10.459 7.08631 11.2131 7.83929 12.1311 7.83929C13.0492 7.83929 13.8033 7.08631 13.8033 6.16964ZM9.54098 13.8304C9.54098 12.9137 8.78689 12.1607 7.86885 12.1607C6.95082 12.1607 6.19672 12.9137 6.19672 13.8304C6.19672 14.747 6.95082 15.5 7.86885 15.5C8.78689 15.5 9.54098 14.747 9.54098 13.8304Z" fill="#CCD2D7"/>
    <path d="M30.0273 13.16C30.0273 12.36 30.5122 11.8 31.2394 11.8C31.8858 11.76 32.4514 12.28 32.4918 12.92C32.4918 13.16 32.4514 13.4 32.3302 13.6C32.8554 13.92 33.5018 14.12 34.1482 14.08C35.4007 14.08 36.2087 13.52 36.2087 12.56C36.2087 11.64 35.2391 11.2 34.1078 10.8C31.9666 10.04 30.4718 9.36 30.4718 7.28C30.4718 5.48 31.9666 4.08 34.2694 4.08C36.4107 4.08 38.0671 5.16 38.0671 6.52C38.0671 7.32 37.5419 7.8 36.8955 7.8C36.2491 7.84 35.6835 7.36 35.6431 6.68V6.64C35.6431 6.44 35.6835 6.28 35.7643 6.12C35.2795 5.88 34.7543 5.76 34.229 5.76C33.0978 5.76 32.411 6.32 32.411 7.16C32.411 8.08 33.3806 8.52 34.5118 8.92C36.5723 9.64 38.1075 10.36 38.1075 12.44C38.1075 14.6 36.4107 15.8 34.0674 15.8C31.8858 15.8 30.0273 14.56 30.0273 13.16ZM40.6932 14.72C40.4912 14.36 40.4104 13.96 40.4508 13.52V9.64H38.9559V8.04H40.4508V6.44L42.3496 5.64V8.04H44.6929V9.64H42.39V13.16C42.39 13.36 42.4304 13.56 42.5112 13.72C42.6728 13.96 42.996 14.12 43.3192 14.08C43.8445 14.04 44.3697 13.92 44.8141 13.68L44.6525 15.28C44.0869 15.56 43.4404 15.72 42.8344 15.72C41.8648 15.72 41.0972 15.44 40.6932 14.72ZM45.6625 11.84C45.6625 9.76 47.2381 7.92 49.743 7.92C52.2882 7.92 53.8235 9.72 53.8235 11.84C53.8235 13.92 52.2478 15.76 49.743 15.76C47.1977 15.72 45.6625 13.92 45.6625 11.84ZM51.8438 11.84C51.8438 10.48 50.955 9.52 49.743 9.52C48.4906 9.52 47.6421 10.48 47.6421 11.84C47.6421 13.2 48.531 14.16 49.743 14.16C50.955 14.16 51.8438 13.2 51.8438 11.84ZM61.54 9.16C61.54 9.8 61.0552 10.32 60.4088 10.32C59.924 10.32 59.4796 10.08 59.2776 9.64C58.6312 9.92 58.106 10.44 57.7424 11.08V14.04H59.0756V15.6H54.7123V14.04H55.8435V9.64H54.7123V8.04H57.6616V9.76C58.308 8.76 59.116 7.92 60.0856 7.92C61.0956 7.92 61.54 8.52 61.54 9.16ZM64.2065 19C63.1965 19 62.5501 18.4 62.5501 17.8C62.5097 17.32 62.8733 16.88 63.3985 16.84H63.5197C63.8833 16.84 64.2469 17.04 64.3681 17.4C64.6105 17.32 64.8529 17.16 64.9741 16.96C65.0953 16.76 65.2165 16.6 65.3377 16.36L65.9033 15.16L63.1965 9.6H62.2673V8H66.2266V9.48H65.0953L66.873 13.44L68.6506 9.48H67.479V8H71.3979V9.6H70.4686L66.873 17.08C66.7114 17.4 66.5094 17.72 66.2669 18C65.7417 18.64 65.0145 19 64.2065 19ZM74.2259 14.88L73.8219 15.64H72.5291V4.6H71.3575V3H74.4279V8.88C75.034 8.28 75.842 7.92 76.6904 7.92C78.7104 7.92 80.2457 9.52 80.2457 11.8C80.2457 14 78.6296 15.72 76.5692 15.72C75.7208 15.72 74.8723 15.44 74.2259 14.88ZM78.266 11.8C78.266 10.36 77.3772 9.52 76.246 9.52C75.5592 9.52 74.9127 9.8 74.4279 10.28V13.52C74.9531 13.88 75.5996 14.08 76.246 14.12C77.3368 14.12 78.266 13.32 78.266 11.8ZM81.0133 14.04H82.1849V4.6H81.0133V3H84.1242V14.04H85.2554V15.6H81.0133V14.04ZM86.0634 11.84C86.0634 9.76 87.639 7.92 90.1439 7.92C92.6891 7.92 94.2244 9.72 94.2244 11.84C94.2244 13.92 92.6487 15.76 90.1439 15.76C87.5986 15.72 86.0634 13.92 86.0634 11.84ZM92.2447 11.84C92.2447 10.48 91.3559 9.52 90.1439 9.52C88.8915 9.52 88.043 10.48 88.043 11.84C88.043 13.2 88.9319 14.16 90.1439 14.16C91.3559 14.16 92.2447 13.2 92.2447 11.84ZM95.2748 11.76C95.2748 9.64 97.012 7.92 99.1533 7.92C101.254 7.92 102.628 9.28 102.628 10.44C102.668 11.08 102.183 11.68 101.537 11.72H101.416C100.769 11.72 100.285 11.2 100.244 10.6C100.244 10.36 100.325 10.16 100.487 9.96C100.365 9.76 99.8805 9.44 99.1129 9.44C98.2241 9.44 97.1736 10.16 97.1736 11.8C97.1736 13.24 98.3049 14.16 99.6381 14.16C100.567 14.16 101.375 13.92 102.345 13.36L102.183 15.04C101.375 15.52 100.406 15.76 99.4765 15.72C97.0928 15.72 95.2748 14.2 95.2748 11.76ZM103.638 14.04H104.769V4.6H103.638V3H106.668V11.44L108.89 9.56H107.839V8.08H112.364V9.68H110.95L109.173 11.16L111.112 14.04H112.364V15.64H109.981L107.799 12.24L106.708 13.16V14.12H107.678V15.64H103.678V14.04H103.638ZM118.869 10.76C118.263 10.76 117.819 10.4 117.819 9.84C117.819 9.72 117.819 9.6 117.859 9.52C117.495 9.4 117.132 9.32 116.768 9.32C115.92 9.32 115.475 9.68 115.475 10.08C115.475 10.52 115.92 10.72 117.091 11.04C118.909 11.52 120 11.96 120 13.32C120 14.92 118.505 15.76 116.768 15.76C115.596 15.76 114.344 15.36 113.819 14.84C113.536 14.6 113.374 14.2 113.374 13.84C113.374 13.28 113.819 12.84 114.344 12.84H114.384C114.91 12.8 115.394 13.24 115.394 13.76V13.84C115.394 13.96 115.394 14.04 115.354 14.16C115.798 14.32 116.243 14.4 116.728 14.4C117.495 14.4 118.142 14.16 118.142 13.6C118.142 13.24 117.819 13 116.647 12.68C114.546 12.12 113.657 11.64 113.657 10.36C113.657 9.2 114.627 7.96 116.768 7.96C117.697 7.96 118.829 8.32 119.354 8.8C119.637 9.04 119.758 9.4 119.758 9.76C119.839 10.32 119.435 10.76 118.869 10.76Z" fill="#CCD2D7"/>
</svg>
