<svg width="40" height="40" viewBox="0 0 40 40" fill="none" xmlns="http://www.w3.org/2000/svg">
<path d="M39.6437 16.3C39.5425 15.7625 39.1063 15.355 38.5638 15.29C38.02 15.225 37.5012 15.5188 37.2762 16.0175C36.88 16.8925 36.01 17.5012 35.0013 17.5C33.8825 17.5025 32.9375 16.7475 32.6225 15.7113C32.4325 15.0788 31.7825 14.7038 31.14 14.8538C30.745 14.9463 30.3713 15 30 15C27.2463 14.995 25.005 12.7537 25 10C25 9.62875 25.0538 9.255 25.1463 8.86125C25.2975 8.21875 24.9212 7.5675 24.2887 7.3775C23.2525 7.06375 22.4975 6.11875 22.5 5C22.4988 3.99 23.1075 3.12125 23.9825 2.725C24.4813 2.5 24.775 1.98 24.71 1.4375C24.645 0.89375 24.2375 0.4575 23.7 0.35625C22.5075 0.1325 21.2725 0 20 0C8.9675 0.0025 0.0025 8.9675 0 20C0.0025 31.0325 8.9675 39.9975 20 40C31.0325 39.9975 39.9975 31.0325 40 20C40 18.7275 39.8675 17.4925 39.6437 16.3ZM32.3688 32.3688C29.195 35.54 24.8275 37.5 20 37.5C15.1725 37.5 10.805 35.54 7.63125 32.3688C4.46 29.195 2.5 24.8275 2.5 20C2.5 15.1725 4.46 10.805 7.63125 7.63125C10.805 4.46 15.1725 2.5 20 2.5C20.225 2.5 20.445 2.52375 20.6688 2.53375C20.2512 3.26125 20.0012 4.09875 20 5C20.0025 6.86625 21.0375 8.46625 22.5463 9.32C22.5225 9.5425 22.5 9.765 22.5 10C22.5025 14.1388 25.8612 17.4975 30 17.5C30.235 17.5 30.4575 17.4775 30.68 17.4538C31.5338 18.9613 33.1325 19.9975 35 20C35.9012 19.9988 36.7388 19.7488 37.4662 19.3312C37.4762 19.5538 37.5 19.775 37.5 20C37.5 24.8275 35.54 29.195 32.3688 32.3688Z" fill="#176EA5"/>
<path d="M15 12.5C16.3807 12.5 17.5 11.3807 17.5 10C17.5 8.61929 16.3807 7.5 15 7.5C13.6193 7.5 12.5 8.61929 12.5 10C12.5 11.3807 13.6193 12.5 15 12.5Z" fill="#176EA5"/>
<path d="M10 22.5C11.3807 22.5 12.5 21.3807 12.5 20C12.5 18.6193 11.3807 17.5 10 17.5C8.61929 17.5 7.5 18.6193 7.5 20C7.5 21.3807 8.61929 22.5 10 22.5Z" fill="#176EA5"/>
<path d="M22.5 32.5C23.8807 32.5 25 31.3807 25 30C25 28.6193 23.8807 27.5 22.5 27.5C21.1193 27.5 20 28.6193 20 30C20 31.3807 21.1193 32.5 22.5 32.5Z" fill="#176EA5"/>
<path d="M21.25 22.5C21.9404 22.5 22.5 21.9404 22.5 21.25C22.5 20.5596 21.9404 20 21.25 20C20.5596 20 20 20.5596 20 21.25C20 21.9404 20.5596 22.5 21.25 22.5Z" fill="#176EA5"/>
<path d="M31.25 27.5C31.9404 27.5 32.5 26.9404 32.5 26.25C32.5 25.5596 31.9404 25 31.25 25C30.5596 25 30 25.5596 30 26.25C30 26.9404 30.5596 27.5 31.25 27.5Z" fill="#176EA5"/>
<path d="M13.75 30C14.4404 30 15 29.4404 15 28.75C15 28.0596 14.4404 27.5 13.75 27.5C13.0596 27.5 12.5 28.0596 12.5 28.75C12.5 29.4404 13.0596 30 13.75 30Z" fill="#176EA5"/>
</svg>
