<svg width="86" height="86" viewBox="0 0 86 86" fill="none" xmlns="http://www.w3.org/2000/svg">
<g clip-path="url(#clip0_1636_701)">
<path d="M43 0C19.2905 0 0 19.2888 0 43C0 66.7112 19.2905 86 43 86C66.7095 86 86 66.7112 86 43C86 19.2888 66.7095 0 43 0ZM43 82.6923C21.1147 82.6923 3.30769 64.8853 3.30769 43C3.30769 21.1147 21.1147 3.30769 43 3.30769C64.8853 3.30769 82.6923 21.1147 82.6923 43C82.6923 64.8853 64.8853 82.6923 43 82.6923Z" fill="#EB001B"/>
<path d="M59.0537 26.9459C58.407 26.2993 57.3618 26.2993 56.7152 26.9459L42.9998 40.6613L29.2845 26.9459C28.6378 26.2993 27.5926 26.2993 26.9459 26.9459C26.2993 27.5926 26.2993 28.6378 26.9459 29.2845L40.6613 42.9998L26.9459 56.7152C26.2993 57.3618 26.2993 58.407 26.9459 59.0537C27.2684 59.3762 27.6918 59.5383 28.1152 59.5383C28.5386 59.5383 28.962 59.3762 29.2845 59.0537L42.9998 45.3384L56.7152 59.0537C57.0377 59.3762 57.461 59.5383 57.8844 59.5383C58.3078 59.5383 58.7312 59.3762 59.0537 59.0537C59.7003 58.407 59.7003 57.3618 59.0537 56.7152L45.3384 42.9998L59.0537 29.2845C59.7003 28.6378 59.7003 27.5926 59.0537 26.9459Z" fill="#EB001B"/>
</g>
<defs>
<clipPath id="clip0_1636_701">
<rect width="86" height="86" fill="white"/>
</clipPath>
</defs>
</svg>
