<svg width="1187" height="668" viewBox="0 0 870 489" fill="none" xmlns="http://www.w3.org/2000/svg">
<g clip-path="url(#clip0)">
<rect width="870" height="489" rx="16" fill="white"/>
<path d="M93.6951 492.851L138.783 346.787C139.206 345.324 140.035 344.01 141.18 342.993C142.324 341.977 143.731 341.302 145.245 341.044C146.756 340.787 148.309 340.96 149.724 341.541C151.138 342.123 152.357 343.09 153.236 344.33L304.273 549.204C305.282 550.565 305.834 552.208 305.845 553.902C305.858 555.594 305.33 557.25 304.34 558.63C303.347 560.012 301.944 561.052 300.324 561.599C298.707 562.147 296.956 562.175 295.326 561.68L99.0904 502.916C97.0297 502.289 95.3062 500.879 94.2956 498.991C93.2849 497.106 93.0691 494.898 93.6951 492.851Z" fill="#DAE7F0"/>
<path d="M157.062 209.116L53.8754 540.399C53.1482 542.827 51.7463 545.007 49.8298 546.689C47.9129 548.371 45.5589 549.487 43.0358 549.91C40.513 550.332 37.9234 550.044 35.5631 549.082C33.2024 548.117 31.1658 546.515 29.686 544.457L-93.7508 376.774C-94.802 375.342 -95.5569 373.719 -95.9725 371.997C-96.3879 370.274 -96.4559 368.486 -96.1721 366.735C-95.8886 364.984 -95.2588 363.304 -94.3194 361.791C-93.38 360.279 -92.1489 358.963 -90.6967 357.92L135.926 194.319C138.24 192.611 141.036 191.669 143.915 191.63C146.796 191.589 149.613 192.453 151.96 194.096C154.308 195.74 156.065 198.079 156.983 200.777C157.898 203.475 157.927 206.395 157.062 209.116Z" fill="#FFCEE3"/>
<path d="M450.811 257.171L315.134 504.28C314.302 505.761 313.109 507.017 311.664 507.926C310.219 508.835 308.571 509.37 306.872 509.479C305.177 509.588 303.486 509.267 301.963 508.549C300.441 507.831 299.131 506.733 298.162 505.368L154.992 302.159C154.036 300.785 153.453 299.188 153.295 297.516C153.135 295.845 153.41 294.153 154.088 292.6C154.765 291.047 155.825 289.683 157.171 288.637C158.514 287.59 160.099 286.894 161.776 286.614L440.624 242.714C442.468 242.427 444.344 242.652 446.046 243.364C447.749 244.077 449.213 245.248 450.267 246.748C451.325 248.248 451.935 250.018 452.033 251.858C452.127 253.699 451.704 255.539 450.811 257.171Z" fill="#FDD2BE"/>
<path d="M263.976 -111.901L407.492 -80.4536C408.926 -80.1664 410.252 -79.4773 411.317 -78.4631C412.383 -77.4489 413.143 -76.1552 413.51 -74.7262C413.878 -73.2996 413.838 -71.798 413.395 -70.3969C412.951 -68.9958 433.117 -58.942 432 -58L226.922 94.3085C225.7 95.3841 224.171 96.0442 222.55 96.1907C220.93 96.3396 219.302 95.9671 217.901 95.1295C216.497 94.2899 215.389 93.0296 214.734 91.5222C214.079 90.0172 213.912 88.3423 214.255 86.7416L254.769 -105.925C255.204 -107.949 256.416 -109.713 258.143 -110.832C259.867 -111.952 261.965 -112.336 263.976 -111.901Z" fill="#DAE7F0"/>
<path d="M-1.39779 -30.5227L-69.7547 63.0674C-70.4523 63.9863 -70.8758 65.0882 -70.9766 66.2458C-71.0773 67.4033 -70.8512 68.569 -70.3241 69.608C-69.7972 70.6471 -68.991 71.5169 -67.9989 72.1169C-67.0066 72.717 -65.8691 73.0227 -64.7179 72.9987L127.953 72.4814C129.237 72.4824 130.483 72.0747 131.517 71.3165C132.55 70.5581 133.318 69.4879 133.709 68.2579C134.101 67.0279 134.096 65.7008 133.698 64.4655C133.3 63.2303 132.526 62.1499 131.489 61.3778L7.15427 -31.7845C5.84178 -32.7578 4.20636 -33.1713 2.6044 -32.935C1.00245 -32.6986 -0.436143 -31.8316 -1.39779 -30.5227Z" fill="#FDD2BE"/>
<path d="M199.992 97.5571L-6.76859 97.0007C-8.27872 96.9802 -9.76777 97.3864 -11.0658 98.1719C-12.3638 98.9591 -13.4182 100.094 -14.109 101.447C-14.7996 102.8 -15.0985 104.319 -14.9715 105.827C-14.8443 107.336 -14.2966 108.774 -13.3906 109.98L59.9256 209.759C60.5518 210.609 61.3398 211.325 62.2451 211.867C63.1504 212.409 64.1555 212.767 65.2003 212.918C66.2467 213.068 67.3153 213.012 68.3427 212.749C69.37 212.487 70.3371 212.024 71.1901 211.387L204.635 112.163C206.019 111.158 207.052 109.742 207.59 108.117C208.126 106.492 208.137 104.744 207.622 103.121C207.106 101.499 206.09 100.086 204.719 99.0871C203.349 98.0866 201.694 97.5508 199.992 97.5571Z" fill="#DAE7F0"/>
<path d="M213.244 -67.5138L92.6827 -8.45709C91.9588 -8.09414 91.3364 -7.55417 90.8713 -6.8875C90.4077 -6.22083 90.1172 -5.44953 90.0282 -4.646C89.9409 -3.84247 90.0568 -3.03292 90.3648 -2.29338C90.6744 -1.55383 91.1666 -0.908592 91.7968 -0.418155L185.407 72.047C186.041 72.5296 186.789 72.8424 187.581 72.9536C188.373 73.0663 189.184 72.9726 189.938 72.6852C190.693 72.3963 191.364 71.9232 191.891 71.3068C192.42 70.6908 192.785 69.9533 192.955 69.163L219.903 -62.3585C220.08 -63.227 220.014 -64.1239 219.712 -64.9485C219.409 -65.7732 218.883 -66.4932 218.193 -67.0281C217.502 -67.5631 216.673 -67.8918 215.799 -67.9775C214.924 -68.0633 214.04 -67.9027 213.244 -67.5138Z" fill="#FFCEE3"/>
<path d="M191.291 158.918L167.79 246.21C165.535 254.585 172.636 262.512 181.208 261.189L388.993 229.107C401.632 227.156 402.857 209.423 390.606 205.752L206.323 150.542C199.848 148.602 193.049 152.391 191.291 158.918Z" fill="#FFCEE3"/>
<path d="M-60.9777 120.913L-106.965 308.728C-109.593 319.46 -97.5476 327.739 -88.4694 321.441L35.1945 235.649C40.8109 231.753 42.0428 223.959 37.902 218.521L-39.7744 116.498C-45.8872 108.469 -58.5777 111.112 -60.9777 120.913Z" fill="#FDD2BE"/>
<path d="M543.236 440.535L649.386 364.659C655.613 360.208 656.137 351.142 650.464 346.003L552.745 257.481C545.246 250.688 533.223 255.655 532.705 265.76L524.274 430.158C523.759 440.19 535.064 446.377 543.236 440.535Z" fill="#FFCEE3"/>
<path d="M601.801 269.016L654.663 316.556C661.147 322.388 671.489 319.574 674.126 311.261L748.275 77.4607C752.454 64.2837 734.711 55.6512 726.922 67.0723L599.911 253.332C596.526 258.296 597.334 264.998 601.801 269.016Z" fill="#DAE7F0"/>
<path d="M447.105 -37.9619L235.628 114.82C227.58 120.634 229.671 133.148 239.171 136.03L517.976 220.621C527.059 223.377 535.595 214.995 533.005 205.863L465.677 -31.5093C463.404 -39.5232 453.858 -42.8401 447.105 -37.9619Z" fill="#FDD2BE"/>
<path d="M736.719 -20.4585L512.39 -15.3504C504.577 -15.1725 499.016 -7.69385 501.095 -0.16098L563.244 225.02C565.94 234.791 578.786 237.024 584.622 228.737L746.804 -1.5521C752.475 -9.6046 746.566 -20.6827 736.719 -20.4585Z" fill="#FFCEE3"/>
<path d="M708.314 287.523L811.501 -43.7604C812.228 -46.1884 813.63 -48.3682 815.547 -50.05C817.464 -51.7319 819.818 -52.8485 822.341 -53.2709C824.863 -53.6932 827.453 -53.4053 829.813 -52.4433C832.174 -51.4785 834.211 -49.8763 835.691 -47.8185L959.127 119.865C960.178 121.296 960.933 122.92 961.349 124.642C961.764 126.365 961.832 128.153 961.549 129.904C961.265 131.655 960.635 133.335 959.696 134.847C958.756 136.36 957.525 137.675 956.073 138.719L729.451 302.32C727.137 304.028 724.34 304.969 721.462 305.009C718.58 305.049 715.763 304.186 713.416 302.542C711.069 300.899 709.311 298.56 708.393 295.862C707.478 293.164 707.449 290.244 708.314 287.523Z" fill="#FDD2BE"/>
<path d="M601.401 608.54L457.885 577.092C456.451 576.805 455.125 576.116 454.059 575.102C452.994 574.088 452.234 572.794 451.866 571.365C451.499 569.938 451.539 568.437 451.982 567.036C452.425 565.634 432.259 555.581 433.376 554.639L638.454 402.33C639.677 401.255 641.206 400.594 642.827 400.448C644.447 400.299 646.075 400.672 647.476 401.509C648.88 402.349 649.988 403.609 650.643 405.117C651.297 406.621 651.465 408.296 651.122 409.897L610.608 602.563C610.172 604.587 608.96 606.351 607.234 607.471C605.509 608.591 603.412 608.975 601.401 608.54Z" fill="#FDD2BE"/>
<path d="M866.774 527.161L935.131 433.571C935.829 432.652 936.252 431.55 936.353 430.393C936.454 429.235 936.228 428.07 935.701 427.031C935.174 425.992 934.367 425.122 933.375 424.522C932.383 423.922 931.246 423.616 930.094 423.64L737.423 424.157C736.14 424.156 734.893 424.564 733.859 425.322C732.827 426.081 732.059 427.151 731.667 428.381C731.275 429.611 731.28 430.938 731.678 432.173C732.076 433.408 732.85 434.489 733.888 435.261L858.222 528.423C859.535 529.396 861.17 529.81 862.772 529.574C864.374 529.337 865.813 528.47 866.774 527.161Z" fill="#FFCEE3"/>
<path d="M665.384 399.082L872.145 399.638C873.655 399.658 875.144 399.252 876.442 398.467C877.74 397.68 878.795 396.545 879.485 395.192C880.176 393.839 880.475 392.32 880.348 390.812C880.221 389.303 879.673 387.864 878.767 386.658L805.451 286.88C804.825 286.03 804.037 285.314 803.131 284.771C802.226 284.229 801.221 283.872 800.176 283.72C799.13 283.57 798.061 283.627 797.034 283.89C796.006 284.152 795.039 284.615 794.186 285.252L660.742 384.476C659.358 385.481 658.324 386.897 657.787 388.522C657.251 390.147 657.24 391.895 657.755 393.518C658.27 395.14 659.286 396.553 660.658 397.552C662.028 398.552 663.683 399.088 665.384 399.082Z" fill="#DAE7F0"/>
<path d="M652.132 564.152L772.694 505.096C773.418 504.733 774.04 504.193 774.505 503.526C774.969 502.86 775.259 502.088 775.348 501.285C775.436 500.481 775.32 499.672 775.012 498.932C774.702 498.193 774.21 497.547 773.58 497.057L679.969 424.592C679.336 424.109 678.588 423.796 677.796 423.685C677.003 423.572 676.192 423.666 675.438 423.953C674.684 424.242 674.012 424.716 673.485 425.332C672.957 425.948 672.592 426.685 672.422 427.476L645.474 558.997C645.296 559.866 645.363 560.763 645.664 561.587C645.968 562.412 646.493 563.132 647.184 563.667C647.874 564.202 648.703 564.53 649.578 564.616C650.453 564.702 651.337 564.541 652.132 564.152Z" fill="#DAE7F0"/>
<path d="M364.734 508.75L485.043 504.396C491.248 504.172 496.257 499.252 496.592 493.052L510.048 244.123C510.742 231.272 493.465 226.491 487.454 237.872L353.689 491.154C349.379 499.315 355.511 509.083 364.734 508.75Z" fill="#DAE7F0"/>
<path d="M825.708 275.46L880.859 353.237C886.954 361.832 900.373 358.962 902.42 348.627L930.349 207.567C932.495 196.73 920.095 188.996 911.306 195.69L828.226 258.973C823.08 262.892 821.967 270.184 825.708 275.46Z" fill="#FFCEE3"/>
</g>
<defs>
<clipPath id="clip0">
<rect width="870" height="489" rx="16" fill="white"/>
</clipPath>
</defs>
</svg>
