<svg width="85" height="86" viewBox="0 0 85 86" fill="none" xmlns="http://www.w3.org/2000/svg">
<g clip-path="url(#clip0_1636_720)">
<path d="M42.5 0C19.0662 0 0 19.2888 0 43C0 66.7112 19.0662 86 42.5 86C65.9338 86 85 66.7112 85 43C85 19.2888 65.9338 0 42.5 0ZM42.5 82.6923C20.8691 82.6923 3.26923 64.8853 3.26923 43C3.26923 21.1147 20.8691 3.30769 42.5 3.30769C64.1309 3.30769 81.7308 21.1147 81.7308 43C81.7308 64.8853 64.1309 82.6923 42.5 82.6923Z" fill="#34A853"/>
<path d="M62.5274 25.3636L37.405 53.9586L22.2701 41.7086C21.5672 41.138 20.5358 41.2554 19.9735 41.9666C19.4095 42.681 19.5239 43.7213 20.2285 44.2919L36.5746 57.5226C36.8754 57.7658 37.2366 57.8848 37.5962 57.8848C38.0474 57.8848 38.4969 57.6963 38.8189 57.3291L64.9728 27.5599C65.5727 26.8785 65.5122 25.8316 64.8371 25.2263C64.1604 24.6177 63.1289 24.6789 62.5274 25.3636Z" fill="#34A853"/>
</g>
<defs>
<clipPath id="clip0_1636_720">
<rect width="85" height="86" fill="white"/>
</clipPath>
</defs>
</svg>
