<svg width="24" height="24" viewBox="0 0 24 24" fill="none" xmlns="http://www.w3.org/2000/svg">
<path d="M2 22L16 17L7 8L2 22ZM12.35 16.18L5.3 18.7L7.82 11.65L12.35 16.18Z" fill="#CCD2D7"/>
<path d="M14.5297 12.53L20.1197 6.94001C20.6097 6.45001 21.3997 6.45001 21.8897 6.94001L22.4797 7.53001L23.5397 6.47001L22.9497 5.88001C21.8797 4.81001 20.1297 4.81001 19.0597 5.88001L13.4697 11.47L14.5297 12.53Z" fill="#CCD2D7"/>
<path d="M10.0597 6.87996L9.46973 7.46996L10.5297 8.52996L11.1197 7.93996C12.1897 6.86996 12.1897 5.11996 11.1197 4.04996L10.5297 3.45996L9.46973 4.52996L10.0597 5.11996C10.5397 5.59996 10.5397 6.39996 10.0597 6.87996Z" fill="#CCD2D7"/>
<path d="M17.0597 11.88L15.4697 13.47L16.5297 14.53L18.1197 12.94C18.6097 12.45 19.3997 12.45 19.8897 12.94L21.4997 14.55L22.5597 13.49L20.9497 11.88C19.8697 10.81 18.1297 10.81 17.0597 11.88Z" fill="#CCD2D7"/>
<path d="M15.0597 5.87996L11.4697 9.46996L12.5297 10.53L16.1197 6.93996C17.1897 5.86996 17.1897 4.11996 16.1197 3.04996L14.5297 1.45996L13.4697 2.51996L15.0597 4.10996C15.5397 4.59996 15.5397 5.39996 15.0597 5.87996Z" fill="#CCD2D7"/>
</svg>
