<svg width="384" height="240" viewBox="0 0 384 240" fill="none" xmlns="http://www.w3.org/2000/svg">
<path opacity="0.1" d="M128.9 220.892L186.222 334.076C186.775 335.221 187.643 336.186 188.725 336.858C189.807 337.53 191.059 337.882 192.334 337.873C193.605 337.87 194.85 337.513 195.928 336.842C197.006 336.171 197.873 335.213 198.433 334.076L293.842 145.536C294.483 144.284 294.707 142.861 294.482 141.474C294.256 140.087 293.594 138.808 292.59 137.821C291.579 136.825 290.28 136.171 288.876 135.949C287.471 135.728 286.033 135.951 284.763 136.587L131.936 211.89C130.343 212.687 129.13 214.079 128.562 215.762C127.993 217.445 128.115 219.284 128.9 220.879V220.892Z" fill="white"/>
<path opacity="0.1" d="M374.188 -42.267L218.938 33.8165C217.807 34.3577 216.852 35.2014 216.181 36.252C215.509 37.3026 215.149 38.5181 215.14 39.7609C215.137 41.0081 215.492 42.2305 216.165 43.2854C216.837 44.3403 217.799 45.1843 218.938 45.7188L312.08 91.3823C313.682 92.1729 315.535 92.3049 317.235 91.7493C318.935 91.1938 320.343 89.9959 321.154 88.4168L383.249 -33.3437C383.904 -34.5879 384.14 -36.0073 383.92 -37.3936C383.7 -38.7799 383.037 -40.0599 382.028 -41.0459C381.018 -42.0405 379.717 -42.695 378.31 -42.9166C376.902 -43.1382 375.46 -42.9156 374.188 -42.2804V-42.267Z" fill="white"/>
<path opacity="0.1" d="M103.801 4.22701L9.84648 -42.2876C8.56943 -42.9201 7.12689 -43.139 5.71955 -42.9139C4.3122 -42.6889 3.01003 -42.031 1.99418 -41.0319C0.990464 -40.0398 0.324933 -38.7568 0.0920553 -37.3652C-0.140822 -35.9736 0.0707857 -34.5441 0.696843 -33.2795L94.6923 152.806C95.384 154.164 96.5139 155.249 97.8992 155.886C99.2846 156.523 100.844 156.673 102.326 156.314C103.8 155.965 105.115 155.136 106.065 153.957C107.014 152.778 107.544 151.317 107.57 149.804V10.2188C107.568 8.96534 107.214 7.73771 106.547 6.67588C105.881 5.61406 104.929 4.76078 103.801 4.21337V4.22701Z" fill="white"/>
<path opacity="0.1" d="M300.819 100.488L129.866 16.4609C128.302 15.7139 126.51 15.5837 124.853 16.0965C123.196 16.6094 121.797 17.7271 120.938 19.2238C120.377 20.2122 120.081 21.3267 120.078 22.4608V190.515C120.084 191.648 120.382 192.76 120.943 193.746C121.505 194.733 122.311 195.56 123.286 196.149C124.267 196.748 125.384 197.091 126.534 197.148C127.684 197.205 128.83 196.973 129.866 196.474L300.819 112.447C301.939 111.892 302.883 111.041 303.546 109.986C304.208 108.932 304.564 107.717 304.573 106.474C304.576 105.228 304.225 104.005 303.562 102.947C302.898 101.888 301.948 101.036 300.819 100.488V100.488Z" fill="white"/>
</svg>
