<svg width="142" height="116" viewBox="0 0 142 116" fill="none" xmlns="http://www.w3.org/2000/svg">
<g filter="url(#filter0_d)">
<path d="M36.7244 20.9348L58.0633 87.4622C58.9617 90.263 62.4743 91.1689 64.6152 89.1518L115.243 41.453C117.53 39.2977 116.553 35.4674 113.512 34.6718L41.5457 15.8433C38.4929 15.0446 35.7606 17.93 36.7244 20.9348Z" fill="#F99E74"/>
<path d="M62.6388 62.9998H79.5906V59.2569H68.8207V59.0878L73.0827 54.7533C77.8881 50.1411 79.2163 47.8954 79.2163 45.1063C79.2163 40.965 75.8477 37.9344 70.8732 37.9344C65.9712 37.9344 62.494 40.977 62.494 45.6738H66.756C66.756 43.1503 68.3498 41.5686 70.8129 41.5686C73.1673 41.5686 74.918 43.0054 74.918 45.3357C74.918 47.4003 73.6623 48.8733 71.2234 51.3485L62.6388 59.764V62.9998Z" fill="white"/>
</g>
<defs>
<filter id="filter0_d" x="-18" y="-12" width="182" height="130" filterUnits="userSpaceOnUse" color-interpolation-filters="sRGB">
<feFlood flood-opacity="0" result="BackgroundImageFix"/>
<feColorMatrix in="SourceAlpha" type="matrix" values="0 0 0 0 0 0 0 0 0 0 0 0 0 0 0 0 0 0 127 0" result="hardAlpha"/>
<feOffset dx="2" dy="5"/>
<feGaussianBlur stdDeviation="10"/>
<feColorMatrix type="matrix" values="0 0 0 0 0.75 0 0 0 0 0.75 0 0 0 0 0.75 0 0 0 0.25 0"/>
<feBlend mode="normal" in2="BackgroundImageFix" result="effect1_dropShadow"/>
<feBlend mode="normal" in="SourceGraphic" in2="effect1_dropShadow" result="shape"/>
</filter>
</defs>
</svg>
