<svg width="142" height="114" viewBox="0 0 142 114" fill="none" xmlns="http://www.w3.org/2000/svg">
<g filter="url(#filter0_d)">
<path d="M108.548 21L31.3781 21C28.0145 21 26.1528 24.8992 28.2676 27.5149L76.0795 86.651C77.9123 88.9179 81.4765 88.5258 82.7728 85.9148L112.131 26.7787C113.451 24.1198 111.517 21 108.548 21Z" fill="#F486AE"/>
<path d="M70.9985 60.3378C76.2868 60.3378 80.1384 57.3073 80.1263 53.1297C80.1384 50.0388 78.2066 47.8172 74.7414 47.3222V47.129C77.4218 46.5495 79.2208 44.5573 79.2087 41.7803C79.2208 38.0132 76.0091 34.9344 71.0709 34.9344C66.2655 34.9344 62.5468 37.7959 62.4502 41.9373H66.7606C66.833 39.8606 68.7648 38.5686 71.0468 38.5686C73.3529 38.5686 74.8863 39.9692 74.8742 42.0459C74.8863 44.2071 73.0993 45.6439 70.5397 45.6439H68.3543V49.0971H70.5397C73.6668 49.0971 75.5262 50.6667 75.5141 52.9003C75.5262 55.0857 73.6306 56.5829 70.9864 56.5829C68.4992 56.5829 66.5795 55.2909 66.4708 53.2746H61.931C62.0518 57.4522 65.7826 60.3378 70.9985 60.3378Z" fill="white"/>
</g>
<defs>
<filter id="filter0_d" x="-18" y="-15" width="182" height="130" filterUnits="userSpaceOnUse" color-interpolation-filters="sRGB">
<feFlood flood-opacity="0" result="BackgroundImageFix"/>
<feColorMatrix in="SourceAlpha" type="matrix" values="0 0 0 0 0 0 0 0 0 0 0 0 0 0 0 0 0 0 127 0" result="hardAlpha"/>
<feOffset dx="2" dy="5"/>
<feGaussianBlur stdDeviation="10"/>
<feColorMatrix type="matrix" values="0 0 0 0 0.75 0 0 0 0 0.75 0 0 0 0 0.75 0 0 0 0.25 0"/>
<feBlend mode="normal" in2="BackgroundImageFix" result="effect1_dropShadow"/>
<feBlend mode="normal" in="SourceGraphic" in2="effect1_dropShadow" result="shape"/>
</filter>
</defs>
</svg>
