<svg width="360" height="360" viewBox="0 0 360 360" fill="none" xmlns="http://www.w3.org/2000/svg">
<path d="M140.503 54.2939L23.1742 96.9311C21.9986 97.3339 20.9587 98.0657 20.1747 99.0418C19.3907 100.018 18.8947 101.198 18.744 102.447C18.5933 103.695 18.7941 104.96 19.3233 106.096C19.8524 107.231 20.6882 108.191 21.7339 108.863L194.641 224.525C195.79 225.299 197.152 225.686 198.532 225.63C199.912 225.572 201.24 225.076 202.328 224.21C203.416 223.344 204.209 222.154 204.592 220.807C204.975 219.461 204.93 218.027 204.464 216.71L148.921 58.3181C148.328 56.6552 147.111 55.299 145.534 54.5453C143.958 53.7915 142.15 53.7011 140.503 54.2939Z" fill="#DAE7F0"/>
<path d="M259.931 293.578L68.9507 165.142C67.563 164.189 66.0114 163.637 64.4734 163.549C62.9352 163.46 61.4727 163.839 60.2526 164.643C59.0326 165.446 58.1042 166.641 57.5737 168.092C57.0431 169.542 56.9318 171.189 57.2523 172.845L82.2027 308.927C82.4167 310.088 82.8379 311.227 83.4424 312.28C84.0467 313.333 84.8223 314.279 85.7249 315.064C86.6275 315.849 87.6394 316.457 88.7027 316.854C89.7658 317.251 90.8596 317.429 91.9212 317.377L257.951 309.73C259.663 309.672 261.228 309.024 262.422 307.879C263.616 306.734 264.377 305.151 264.597 303.357C264.817 301.563 264.484 299.651 263.646 297.894C262.808 296.137 261.507 294.626 259.931 293.578Z" fill="#DAE7F0"/>
<path d="M354.364 87.7857L181.387 66.7279C180.343 66.6106 179.283 66.7579 178.306 67.1561C177.33 67.5543 176.468 68.1903 175.804 69.0044C175.139 69.8185 174.692 70.784 174.505 71.8104C174.319 72.8367 174.399 73.8902 174.738 74.8719L225.368 220.344C225.715 221.321 226.309 222.192 227.092 222.876C227.875 223.56 228.824 224.034 229.848 224.254C230.872 224.474 231.938 224.434 232.948 224.135C233.957 223.837 234.877 223.292 235.621 222.55L357.966 98.1349C358.773 97.3125 359.335 96.2869 359.589 95.1727C359.844 94.0585 359.781 92.8996 359.407 91.8257C359.033 90.7519 358.363 89.8053 357.472 89.0918C356.582 88.3783 355.506 87.9261 354.364 87.7857Z" fill="#DAE7F0"/>
<path d="M258.181 98.9562L250.662 102.649C250.617 102.672 250.578 102.706 250.55 102.747C250.521 102.789 250.503 102.837 250.497 102.888C250.492 102.938 250.499 102.988 250.518 103.035C250.537 103.081 250.567 103.121 250.607 103.152L256.445 107.683C256.484 107.714 256.531 107.733 256.581 107.74C256.63 107.747 256.68 107.741 256.727 107.723C256.774 107.705 256.816 107.676 256.849 107.637C256.882 107.599 256.905 107.553 256.916 107.503L258.596 99.2786C258.607 99.2243 258.603 99.1682 258.584 99.1166C258.565 99.065 258.532 99.02 258.489 98.9866C258.447 98.9531 258.395 98.9326 258.34 98.9272C258.286 98.9218 258.23 98.9319 258.181 98.9562Z" fill="#185E8A"/>
<path d="M327.639 140.083L313.941 136.725C313.858 136.705 313.771 136.707 313.689 136.729C313.607 136.752 313.532 136.795 313.47 136.854C313.409 136.913 313.364 136.986 313.339 137.067C313.315 137.147 313.311 137.233 313.328 137.315L316.004 149.492C316.022 149.573 316.062 149.649 316.118 149.712C316.175 149.774 316.245 149.821 316.326 149.849C316.406 149.876 316.493 149.883 316.576 149.869C316.66 149.855 316.739 149.82 316.806 149.768L327.828 140.949C327.901 140.891 327.956 140.814 327.988 140.727C328.019 140.64 328.025 140.546 328.005 140.456C327.985 140.366 327.94 140.284 327.876 140.218C327.811 140.152 327.728 140.105 327.639 140.083Z" fill="#185E8A"/>
<path d="M169.775 43.9217L153.375 43.1077C153.276 43.1037 153.177 43.1247 153.088 43.1687C152.999 43.2127 152.922 43.2783 152.865 43.3593C152.808 43.4403 152.772 43.534 152.762 43.6318C152.751 43.7295 152.766 43.828 152.804 43.918L158.538 57.2509C158.577 57.3403 158.639 57.4182 158.717 57.4772C158.796 57.5362 158.887 57.5744 158.985 57.5882C159.083 57.602 159.183 57.591 159.276 57.5562C159.369 57.5213 159.452 57.4639 159.517 57.3891L170.183 44.8702C170.254 44.7875 170.3 44.6873 170.316 44.5808C170.332 44.4744 170.319 44.3659 170.277 44.2675C170.234 44.169 170.165 44.0846 170.076 44.0235C169.987 43.9624 169.884 43.9272 169.775 43.9217Z" fill="#9AAFBC"/>
<path d="M317.111 221.096L307.55 223.79C307.493 223.806 307.44 223.837 307.397 223.88C307.354 223.922 307.323 223.975 307.306 224.032C307.288 224.09 307.286 224.15 307.299 224.208C307.311 224.266 307.339 224.32 307.378 224.364L313.222 230.906C313.261 230.949 313.312 230.982 313.368 231.001C313.423 231.02 313.484 231.024 313.543 231.013C313.602 231.002 313.657 230.976 313.704 230.938C313.749 230.901 313.786 230.852 313.809 230.796L317.527 221.561C317.552 221.5 317.559 221.434 317.548 221.37C317.537 221.306 317.508 221.246 317.465 221.198C317.422 221.149 317.366 221.114 317.304 221.096C317.241 221.078 317.175 221.078 317.111 221.096Z" fill="#9AAFBC"/>
<path d="M142.902 266.829L132.721 260.428C132.659 260.39 132.588 260.368 132.516 260.364C132.444 260.36 132.371 260.374 132.306 260.406C132.24 260.437 132.184 260.484 132.142 260.542C132.102 260.601 132.076 260.669 132.068 260.74L130.974 271.309C130.967 271.38 130.978 271.452 131.007 271.518C131.036 271.583 131.081 271.641 131.138 271.685C131.196 271.728 131.264 271.757 131.336 271.768C131.408 271.779 131.48 271.772 131.549 271.748L142.824 267.581C142.898 267.553 142.962 267.506 143.011 267.444C143.06 267.381 143.09 267.307 143.098 267.229C143.106 267.151 143.092 267.072 143.057 267.002C143.022 266.931 142.968 266.871 142.902 266.829Z" fill="#185E8A"/>
<path d="M58.9104 107.224L49.9812 107.979C49.8923 107.985 49.8065 108.017 49.7339 108.07C49.6614 108.123 49.605 108.195 49.5713 108.279C49.5375 108.362 49.5278 108.454 49.5434 108.543C49.5588 108.631 49.5989 108.713 49.6588 108.78L59.4881 120.041C59.5534 120.116 59.6405 120.168 59.7373 120.19C59.834 120.212 59.9353 120.203 60.0269 120.163C60.1185 120.124 60.1957 120.056 60.2473 119.97C60.299 119.884 60.3226 119.783 60.3148 119.683L59.4189 107.661C59.4089 107.535 59.3498 107.418 59.2546 107.336C59.1594 107.254 59.0356 107.214 58.9104 107.224Z" fill="#185E8A"/>
<path d="M232.608 168.113L241.636 206.968L233.199 206.135L233.945 209.34L232.335 206.05L224.746 205.27L221.415 204.947L218.7 206.283C218.637 206.314 218.605 206.33 218.542 206.361L218.147 204.592L217.111 200.156L214.295 187.999L207.415 158.176L206.137 152.603L205.802 151.197C217.898 148.463 229.87 156.036 232.608 168.113Z" fill="#DBE4EA"/>
<path d="M232.608 168.113L241.636 206.967L233.198 206.135L226.168 175.443C224.175 166.65 217.29 160.264 209.016 158.487C208.499 158.388 207.964 158.258 207.431 158.207L206.152 152.634L205.817 151.229C217.899 148.463 229.87 156.036 232.608 168.113Z" fill="#96ABBA"/>
<path d="M163.942 80.3949L166.652 85.9309C167.395 87.4494 166.782 89.3207 165.236 90.0819L162.489 91.4335C160.974 92.1792 159.108 91.5668 158.35 90.0167L155.64 84.4806L105.955 108.933L108.665 114.469C109.408 115.988 108.795 117.859 107.249 118.62L104.471 119.987C102.957 120.733 101.09 120.121 100.331 118.57L97.6213 113.034L92.1289 115.738L135.481 204.315L141.005 201.596L138.311 196.092C137.568 194.573 138.18 192.702 139.726 191.941L142.473 190.589C143.988 189.843 145.854 190.456 146.613 192.006L149.323 197.542L199.039 173.074L196.329 167.538C195.586 166.019 196.199 164.148 197.745 163.387L200.523 162.02C202.038 161.274 203.904 161.886 204.663 163.436L207.373 168.972L212.833 166.285L169.481 77.7078L163.957 80.4265L163.942 80.3949ZM141.194 180.934C141.937 182.452 141.325 184.323 139.778 185.085L137.001 186.452C135.486 187.197 133.619 186.585 132.86 185.035L130.151 179.499C129.408 177.98 130.019 176.109 131.566 175.348L134.344 173.981C135.859 173.235 137.726 173.847 138.485 175.398L141.194 180.934ZM133.05 164.294C133.793 165.812 133.182 167.684 131.635 168.445L128.857 169.812C127.342 170.558 125.475 169.945 124.716 168.395L122.007 162.859C121.264 161.341 121.876 159.469 123.423 158.708L126.2 157.341C127.716 156.595 129.582 157.208 130.34 158.758L133.05 164.294ZM124.922 147.686C125.664 149.204 125.053 151.075 123.506 151.837L120.728 153.204C119.213 153.949 117.347 153.337 116.588 151.787L113.878 146.251C113.135 144.732 113.747 142.861 115.294 142.1L118.072 140.733C119.586 139.987 121.453 140.599 122.212 142.15L124.922 147.686ZM116.793 131.077C117.536 132.596 116.925 134.467 115.378 135.228L112.6 136.595C111.085 137.341 109.218 136.729 108.459 135.179L105.75 129.643C105.007 128.124 105.618 126.253 107.165 125.492L109.943 124.125C111.458 123.379 113.325 123.991 114.084 125.541L116.793 131.077ZM199.181 152.395C199.924 153.914 199.312 155.785 197.765 156.546L195.019 157.898C193.504 158.644 191.637 158.031 190.879 156.481L188.17 150.945C187.426 149.427 188.038 147.555 189.585 146.794L192.362 145.427C193.878 144.681 195.744 145.294 196.503 146.844L199.212 152.38L199.181 152.395ZM191.037 135.755C191.78 137.274 191.169 139.145 189.622 139.906L186.875 141.258C185.36 142.004 183.494 141.391 182.735 139.841L180.025 134.305C179.283 132.787 179.894 130.915 181.441 130.154L184.219 128.787C185.734 128.041 187.6 128.654 188.359 130.204L191.069 135.74L191.037 135.755ZM182.908 119.147C183.651 120.666 183.04 122.537 181.493 123.298L178.747 124.65C177.231 125.395 175.365 124.783 174.607 123.233L171.897 117.697C171.154 116.178 171.765 114.307 173.312 113.546L176.09 112.179C177.605 111.433 179.472 112.046 180.23 113.596L182.939 119.132L182.908 119.147ZM174.78 102.539C175.523 104.058 174.911 105.929 173.364 106.69L170.619 108.042C169.103 108.787 167.237 108.175 166.478 106.625L163.769 101.089C163.025 99.5704 163.637 97.6991 165.184 96.9379L167.961 95.5708C169.477 94.8251 171.344 95.4374 172.101 96.9875L174.811 102.524L174.78 102.539Z" fill="#4A6B80"/>
<path d="M158.207 110.696L125.063 127.007C123.548 127.753 122.889 129.608 123.648 131.158L142.614 169.911C143.357 171.429 145.208 172.089 146.755 171.328L179.898 155.016C181.414 154.27 182.072 152.415 181.315 150.865L162.347 112.112C161.604 110.594 159.753 109.934 158.207 110.696ZM111.479 106.215L118.26 120.071C119.004 121.589 120.853 122.249 122.4 121.487L155.545 105.176C157.06 104.43 157.719 102.575 156.96 101.025L150.178 87.1687L111.479 106.215ZM182.608 160.552L149.464 176.864C147.949 177.609 147.29 179.465 148.049 181.015L154.83 194.871L193.499 175.84L186.718 161.984C185.99 160.418 184.155 159.79 182.608 160.552Z" fill="#86ADC9"/>
<path d="M207.262 168.908L209.971 174.444C210.715 175.963 210.103 177.834 208.556 178.595L205.81 179.947C204.295 180.693 202.428 180.08 201.67 178.53L198.961 172.994L149.276 197.447L151.985 202.983C152.728 204.501 152.116 206.373 150.569 207.134L147.792 208.501C146.276 209.247 144.41 208.634 143.651 207.084L140.942 201.548L135.449 204.251L178.802 292.828L184.325 290.11L181.616 284.574C180.873 283.055 181.484 281.184 183.031 280.423L185.777 279.071C187.293 278.325 189.159 278.938 189.918 280.488L192.627 286.024L242.344 261.556L239.635 256.02C238.892 254.501 239.503 252.63 241.05 251.869L243.828 250.502C245.343 249.756 247.21 250.368 247.968 251.918L250.677 257.454L256.138 254.767L212.786 166.19L207.262 168.908ZM184.499 269.416C185.242 270.934 184.631 272.805 183.084 273.567L180.306 274.934C178.791 275.679 176.924 275.067 176.165 273.517L173.456 267.981C172.713 266.462 173.325 264.591 174.872 263.83L177.649 262.463C179.165 261.717 181.031 262.329 181.79 263.88L184.499 269.416ZM176.371 252.807C177.113 254.326 176.502 256.197 174.955 256.958L172.177 258.326C170.662 259.071 168.796 258.459 168.037 256.909L165.327 251.373C164.584 249.854 165.197 247.983 166.743 247.222L169.521 245.855C171.035 245.109 172.902 245.721 173.661 247.271L176.371 252.807ZM168.242 236.199C168.985 237.718 168.374 239.589 166.827 240.35L164.049 241.717C162.534 242.463 160.667 241.851 159.908 240.301L157.199 234.764C156.456 233.246 157.067 231.375 158.614 230.614L161.392 229.246C162.907 228.501 164.774 229.113 165.533 230.663L168.242 236.199ZM160.114 219.591C160.857 221.11 160.244 222.981 158.698 223.742L155.92 225.109C154.406 225.855 152.539 225.242 151.78 223.692L149.07 218.156C148.327 216.638 148.939 214.767 150.485 214.005L153.264 212.638C154.779 211.893 156.645 212.505 157.404 214.055L160.114 219.591ZM242.486 240.877C243.229 242.396 242.618 244.267 241.071 245.028L238.324 246.38C236.809 247.126 234.943 246.513 234.184 244.963L231.474 239.427C230.732 237.909 231.343 236.037 232.89 235.276L235.668 233.909C237.183 233.163 239.049 233.776 239.808 235.326L242.518 240.862L242.486 240.877ZM234.357 224.269C235.1 225.788 234.489 227.659 232.942 228.42L230.196 229.772C228.68 230.517 226.814 229.905 226.056 228.355L223.346 222.819C222.603 221.3 223.214 219.429 224.761 218.668L227.539 217.301C229.054 216.555 230.921 217.167 231.679 218.718L234.388 224.254L234.357 224.269ZM226.229 207.661C226.972 209.179 226.361 211.051 224.813 211.812L222.068 213.163C220.552 213.909 218.686 213.297 217.927 211.747L215.218 206.211C214.475 204.692 215.086 202.821 216.633 202.06L219.411 200.693C220.926 199.947 222.793 200.559 223.55 202.109L226.26 207.645L226.229 207.661ZM218.101 191.053C218.844 192.571 218.231 194.442 216.685 195.204L213.938 196.555C212.423 197.301 210.557 196.689 209.799 195.138L207.089 189.602C206.345 188.084 206.958 186.213 208.504 185.451L211.282 184.084C212.797 183.339 214.663 183.951 215.422 185.501L218.132 191.037L218.101 191.053Z" fill="#4A6B80"/>
<path d="M201.527 199.209L168.383 215.521C166.868 216.267 166.209 218.122 166.968 219.672L185.934 258.424C186.677 259.943 188.528 260.602 190.075 259.841L223.219 243.529C224.735 242.783 225.393 240.928 224.634 239.378L205.668 200.626C204.925 199.107 203.074 198.448 201.527 199.209ZM154.799 194.728L161.58 208.584C162.324 210.103 164.174 210.762 165.72 210.001L198.865 193.689C200.38 192.943 201.039 191.088 200.28 189.538L193.498 175.682L154.799 194.728ZM225.913 249.034L192.768 265.346C191.254 266.091 190.594 267.947 191.353 269.497L198.134 283.353L236.803 264.322L230.022 250.466C229.31 248.932 227.46 248.272 225.913 249.034Z" fill="#86ADC9"/>
<path d="M242.077 206.986L243.949 215.054L247.451 230.053L248.151 233.163L248.531 234.899L240.624 236.671L226.732 239.818L226.35 238.318L226.352 238.161L223.931 227.693L220.476 212.71L218.604 204.643L233.64 206.153L242.077 206.986Z" fill="#DBE4EA"/>
<path d="M242.077 206.987L243.95 215.054L247.452 230.053L248.151 233.163L248.531 234.9L240.624 236.671L240.228 234.982L238.92 229.188L236.683 219.415L235.572 214.584L235.466 214.205L233.64 206.154L242.077 206.987Z" fill="#96ABBA"/>
<path d="M252.824 208.056L252.057 215.853L250.625 230.375L247.452 230.053L238.92 229.188L223.931 227.693L184.149 223.719C174.595 222.768 167.037 215.968 164.729 207.172C164.699 207.109 164.683 207.077 164.684 206.998C164.607 206.761 164.562 206.509 164.516 206.256C164.471 206.004 164.425 205.751 164.38 205.499C164.336 205.246 164.29 204.994 164.245 204.741C164.2 204.489 164.186 204.221 164.141 203.968C164.095 203.716 164.081 203.448 164.068 203.18C164.054 202.912 164.04 202.644 164.027 202.375C164.013 202.107 164.015 201.871 164.001 201.603C164.001 201.603 164.001 201.603 163.986 201.571C163.973 201.303 164.005 201.051 163.992 200.783C164.009 200.5 164.011 200.263 164.029 199.98C164.047 199.696 164.08 199.444 164.098 199.161L218.619 204.596L233.655 206.106L242.093 206.939L252.824 208.056Z" fill="#F2F9FD"/>
<path d="M254.05 208.16L253.205 215.956L252.058 215.853L243.95 215.054L235.466 214.205L234.68 214.121L232.779 213.918L220.43 212.694L164.7 207.188C164.669 207.124 164.685 207.077 164.654 207.014C164.577 206.777 164.531 206.525 164.486 206.272C164.441 206.02 164.395 205.767 164.35 205.515C164.306 205.262 164.26 205.009 164.215 204.757C164.169 204.504 164.156 204.236 164.11 203.984C164.065 203.731 164.051 203.463 164.037 203.195C164.024 202.927 164.01 202.659 163.996 202.391C163.984 202.123 163.985 201.887 163.972 201.619C163.972 201.619 163.972 201.619 163.956 201.587C163.942 201.319 163.976 201.067 163.962 200.799C163.98 200.515 163.982 200.279 163.999 199.995C164.017 199.712 164.05 199.46 164.068 199.176L218.589 204.611L233.625 206.122L242.063 206.955L252.81 208.025L254.05 208.16Z" fill="#DBE4EA"/>
<path d="M300.512 196.089C300.2 195.771 299.857 195.469 299.513 195.167C299.169 194.865 298.825 194.563 298.465 194.309C298.278 194.165 298.09 194.022 297.919 193.911C297.559 193.656 297.152 193.385 296.761 193.146C296.088 192.731 295.383 192.332 294.678 192.012C294.365 191.852 294.02 191.708 293.675 191.563C291.747 190.745 289.645 190.21 287.461 189.99C285.606 189.803 283.829 189.853 282.082 190.124C279.705 190.47 277.419 191.242 275.352 192.299C275.098 192.423 274.846 192.547 274.609 192.703C274.483 192.765 274.34 192.875 274.215 192.937C273.961 193.061 273.756 193.201 273.52 193.357C273.408 193.451 273.282 193.513 273.172 193.607C272.934 193.763 272.697 193.919 272.476 194.106C272.017 194.45 271.59 194.778 271.147 195.153C270.735 195.512 270.293 195.888 269.912 196.31C269.801 196.404 269.705 196.53 269.627 196.608C269.341 196.905 269.056 197.203 268.786 197.532C268.342 198.064 267.913 198.629 267.484 199.193C267.325 199.428 267.166 199.664 267.007 199.899C266.943 200.009 266.848 200.134 266.784 200.244C266.561 200.589 266.354 200.966 266.147 201.343C264.871 203.698 263.986 206.292 263.666 209.08L252.856 208.041L252.089 215.837L250.658 230.36L251.679 230.446L279.616 233.184L283.151 233.524C290.441 234.254 297.209 231.277 301.714 226.155C301.857 225.967 302.016 225.81 302.19 225.607C302.317 225.466 302.443 225.325 302.555 225.152C302.682 225.011 302.793 224.839 302.92 224.698C303.047 224.557 303.158 224.384 303.238 224.227C303.476 223.914 303.668 223.584 303.858 223.254C303.97 223.082 304.05 222.925 304.13 222.768C304.241 222.595 304.321 222.438 304.401 222.281C304.481 222.124 304.575 221.999 304.655 221.842C304.736 221.685 304.816 221.527 304.912 221.323C305.007 221.119 305.103 220.915 305.199 220.711C305.311 220.459 305.439 220.161 305.551 219.909C305.6 219.768 305.663 219.658 305.711 219.516C305.823 219.265 305.92 218.982 305.985 218.714C306.032 218.573 306.049 218.447 306.113 218.337C306.145 218.243 306.194 218.101 306.21 217.975C306.276 217.708 306.356 217.472 306.42 217.204C306.469 217.063 306.502 216.89 306.55 216.748C306.614 216.56 306.632 216.355 306.681 216.135C306.714 215.961 306.761 215.82 306.762 215.662C306.795 215.489 306.844 215.269 306.877 215.096C306.91 214.844 306.944 214.592 306.993 214.371C307.026 214.198 307.027 214.041 307.044 213.915C307.677 207.047 305.101 200.582 300.512 196.089ZM284.135 224.011C277.426 223.348 272.488 217.339 273.152 210.614C273.817 203.888 279.813 198.935 286.523 199.598C288.046 199.75 289.505 200.171 290.806 200.826C291.683 201.258 292.449 201.784 293.184 202.404C293.294 202.468 293.387 202.579 293.465 202.658C293.574 202.722 293.668 202.833 293.761 202.944C293.965 203.119 294.136 203.309 294.308 203.499C294.401 203.61 294.48 203.69 294.572 203.801C294.666 203.912 294.744 203.991 294.838 204.102C294.931 204.213 295.009 204.293 295.071 204.419C295.165 204.53 295.211 204.625 295.304 204.736C295.398 204.847 295.46 204.974 295.538 205.053C295.538 205.053 295.538 205.053 295.554 205.085C297.045 207.333 297.779 210.113 297.474 213.011C296.841 219.721 290.876 224.659 284.135 224.011Z" fill="#3A8FC6"/>
<path d="M287.428 190.005C278.425 189.137 270.165 193.869 266.1 201.327C270.273 198.331 275.474 196.792 280.973 197.304C284.634 197.661 287.99 198.915 290.837 200.811C292.764 201.786 294.372 203.232 295.522 205.021C299.169 209.351 301.137 215.134 300.509 221.213C300.219 224.221 299.317 227.021 297.977 229.486C302.894 225.927 306.302 220.404 306.949 213.883C308.204 201.881 299.448 191.195 287.428 190.005Z" fill="#3A8FC6"/>
<path d="M240.228 234.981L226.319 238.176L226.365 238.35L228.723 248.769C217.27 251.698 210.184 263.232 212.801 274.82C215.25 285.587 225.213 292.656 235.864 291.771C236.053 291.757 236.274 291.727 236.462 291.713C236.651 291.698 236.871 291.668 237.06 291.654C237.249 291.639 237.423 291.593 237.611 291.579C238.052 291.519 238.477 291.428 238.902 291.336C246.731 289.564 252.624 283.759 254.88 276.603C255.025 276.179 255.122 275.738 255.251 275.282C255.349 274.841 255.447 274.401 255.544 273.96C255.643 273.362 255.743 272.763 255.795 272.149C255.843 271.85 255.846 271.535 255.864 271.251C255.866 270.936 255.884 270.652 255.886 270.337C255.915 268.635 255.74 266.916 255.36 265.179L254.553 261.69L248.515 234.946L248.103 233.225L240.228 234.981ZM222.172 272.759C220.665 266.16 224.804 259.569 231.403 258.088C237.988 256.575 244.56 260.72 246.035 267.335C247.51 273.95 243.403 280.524 236.819 282.037C230.204 283.487 223.679 279.358 222.172 272.759Z" fill="#3A8FC6"/>
<path d="M240.229 234.982L246.602 263.131L247.409 266.62C249.828 277.324 243.993 287.969 234.072 291.869C235.676 291.865 237.312 291.688 238.935 291.321C250.701 288.631 258.055 276.926 255.377 265.133L254.57 261.643L248.12 233.179L240.229 234.982Z" fill="#3A8FC6"/>
<path d="M235.037 221.011C236.885 220.101 237.648 217.863 236.741 216.011C235.835 214.159 233.602 213.395 231.754 214.304C229.906 215.214 229.143 217.452 230.05 219.304C230.956 221.156 233.189 221.92 235.037 221.011Z" fill="#95ABBA"/>
</svg>
