<svg width="24" height="24" viewBox="0 0 24 24" fill="none" xmlns="http://www.w3.org/2000/svg">
<path d="M22 12C22 17.5241 17.5225 22 12 22C6.47754 22 2 17.5241 2 12C2 6.47915 6.47754 2 12 2C17.5225 2 22 6.47915 22 12ZM12 14.0161C10.9756 14.0161 10.1452 14.8466 10.1452 15.871C10.1452 16.8954 10.9756 17.7258 12 17.7258C13.0244 17.7258 13.8548 16.8954 13.8548 15.871C13.8548 14.8466 13.0244 14.0161 12 14.0161ZM10.239 7.34895L10.5381 12.8328C10.5521 13.0894 10.7643 13.2903 11.0212 13.2903H12.9788C13.2357 13.2903 13.4479 13.0894 13.4619 12.8328L13.761 7.34895C13.7761 7.07177 13.5554 6.83871 13.2779 6.83871H10.7221C10.4445 6.83871 10.2239 7.07177 10.239 7.34895V7.34895Z" fill="#CCD2D7"/>
</svg>
