<svg width="24" height="24" viewBox="0 0 24 24" fill="none" xmlns="http://www.w3.org/2000/svg">
<path d="M20.5179 8.5625H3.48214C3.21588 8.5625 3 8.34212 3 8.07031V6.59375C3 5.50643 3.86344 4.625 4.92857 4.625H6.85714V2.49219C6.85714 2.22038 7.07302 2 7.33929 2H8.94643C9.21269 2 9.42857 2.22038 9.42857 2.49219V4.625H14.5714V2.49219C14.5714 2.22038 14.7873 2 15.0536 2H16.6607C16.927 2 17.1429 2.22038 17.1429 2.49219V4.625H19.0714C20.1366 4.625 21 5.50643 21 6.59375V8.07031C21 8.34212 20.7841 8.5625 20.5179 8.5625ZM3.48214 9.875H20.5179C20.7841 9.875 21 10.0954 21 10.3672V21.0312C21 22.1186 20.1366 23 19.0714 23H4.92857C3.86344 23 3 22.1186 3 21.0312V10.3672C3 10.0954 3.21588 9.875 3.48214 9.875ZM16.8735 13.8103L15.7417 12.6456C15.5542 12.4526 15.2489 12.4513 15.0599 12.6428L10.7995 16.957L8.95205 15.0558C8.76454 14.8628 8.45922 14.8616 8.27018 15.053L7.12923 16.2084C6.94019 16.3998 6.93895 16.7115 7.1265 16.9045L10.4453 20.3198C10.6328 20.5128 10.9381 20.514 11.1271 20.3226L16.8708 14.5064C17.0598 14.3149 17.0611 14.0033 16.8735 13.8103V13.8103Z" fill="#CCD2D7"/>
</svg>
