<svg width="24" height="24" viewBox="0 0 24 24" fill="none" xmlns="http://www.w3.org/2000/svg">
<path d="M22.47 5.2C21.55 4.73 19.82 4 17.5 4C14.91 4 13 4.91 12 5.48C11 4.91 9.09 4 6.5 4C4.18 4 2.44 4.73 1.53 5.2C1.04 5.44 1 5.95 1 6.08V18.16C1 18.87 1.77 19.41 2.48 19.03C4.33 18.06 5.87 18 6.5 18C8.63 18 10.36 18.86 11.46 19.61C11.81 19.84 12.24 19.81 12.53 19.61C13.63 18.86 15.36 18 17.49 18C18.12 18 19.66 18.06 21.51 19.04C22.25 19.43 22.99 18.85 22.99 18.17V6.08C23 5.95 22.96 5.44 22.47 5.2ZM21 16.62C19.48 16.07 18.22 16 17.5 16C16.63 16 14.47 16.09 12 17.58V7.79C13.28 7.05 14.87 6 17.5 6C18.22 6 19.52 6.09 21 6.72V16.62Z" fill="#CCD2D7"/>
<path d="M19.4 13.21C18.79 13.08 18.16 13 17.5 13C16.45 13 15.45 13.19 14.51 13.52C14.21 13.63 14 13.91 14 14.23C14 14.75 14.51 15.11 15 14.93C15.78 14.65 16.62 14.49 17.5 14.49C18.05 14.49 18.58 14.55 19.1 14.67C19.56 14.78 20 14.42 20 13.94C20 13.59 19.75 13.29 19.4 13.21Z" fill="#CCD2D7"/>
<path d="M19.4 10.46C18.79 10.32 18.15 10.25 17.5 10.25C16.45 10.25 15.45 10.44 14.51 10.77C14.21 10.88 14 11.16 14 11.48V11.49C14 12.01 14.51 12.37 15 12.19C15.78 11.91 16.62 11.75 17.5 11.75C18.05 11.75 18.58 11.82 19.09 11.93C19.56 12.04 20 11.68 20 11.2C20 10.84 19.75 10.54 19.4 10.46Z" fill="#CCD2D7"/>
<path d="M14.52 8.00999C14.21 8.10999 14 8.39999 14 8.71999V8.73999C14 9.25999 14.51 9.61999 15 9.43999C15.78 9.15999 16.62 8.99999 17.5 8.99999C18.05 8.99999 18.58 9.06999 19.09 9.17999C19.56 9.28999 20 8.92999 20 8.44999V8.43999C20 8.07999 19.75 7.77999 19.4 7.69999C18.79 7.56999 18.15 7.48999 17.5 7.48999C16.45 7.49999 15.45 7.67999 14.52 8.00999Z" fill="#CCD2D7"/>
</svg>
