<svg width="18" height="20" viewBox="0 0 18 20" fill="none" xmlns="http://www.w3.org/2000/svg">
<path d="M9.44247 0.016875C10.5331 0 11.6175 0.01 12.7006 0C12.7662 1.27562 13.225 2.575 14.1587 3.47688C15.0906 4.40125 16.4087 4.82437 17.6912 4.9675V8.32313C16.4893 8.28375 15.2818 8.03375 14.1912 7.51625C13.7162 7.30125 13.2737 7.02438 12.8406 6.74125C12.835 9.17625 12.8506 11.6081 12.825 14.0331C12.76 15.1981 12.3756 16.3575 11.6981 17.3175C10.6081 18.9156 8.71622 19.9575 6.77309 19.99C5.58122 20.0581 4.39059 19.7331 3.37497 19.1344C1.69184 18.1419 0.507467 16.325 0.334967 14.375C0.314967 13.9581 0.308092 13.5419 0.324967 13.135C0.474967 11.5494 1.25934 10.0325 2.47684 9.00063C3.85684 7.79875 5.78997 7.22625 7.59997 7.565C7.61684 8.79938 7.56747 10.0325 7.56747 11.2669C6.74059 10.9994 5.77434 11.0744 5.05184 11.5762C4.52434 11.9181 4.12372 12.4419 3.91497 13.0344C3.74247 13.4569 3.79184 13.9263 3.80184 14.375C3.99997 15.7425 5.31497 16.8919 6.71872 16.7675C7.64934 16.7575 8.54122 16.2175 9.02622 15.4269C9.18309 15.15 9.35872 14.8669 9.36809 14.5413C9.44997 13.0506 9.41747 11.5663 9.42747 10.0756C9.43434 6.71625 9.41747 3.36625 9.44309 0.0175L9.44247 0.016875Z" fill="#CCD2D7"/>
</svg>
