<svg width="24" height="24" viewBox="0 0 24 24" fill="none" xmlns="http://www.w3.org/2000/svg">
<path d="M22.9231 6.01254C22.145 6.35385 21.3159 6.58008 20.4515 6.68992C21.3408 6.159 22.0195 5.32469 22.3385 4.31908C21.5095 4.81338 20.5941 5.16254 19.6185 5.35738C18.8313 4.51915 17.7093 4 16.4853 4C14.1105 4 12.1987 5.92754 12.1987 8.29054C12.1987 8.63054 12.2275 8.95746 12.2981 9.26869C8.732 9.09477 5.57654 7.38562 3.45677 4.782C3.08669 5.42408 2.86962 6.159 2.86962 6.95015C2.86962 8.43569 3.63462 9.75254 4.77492 10.5149C4.08577 10.5018 3.40969 10.3018 2.83692 9.98662C2.83692 9.99969 2.83692 10.0167 2.83692 10.0337C2.83692 12.1182 4.32377 13.8495 6.27354 14.2484C5.92438 14.3438 5.54385 14.3896 5.14892 14.3896C4.87431 14.3896 4.59708 14.3739 4.33685 14.3164C4.89262 16.0151 6.46969 17.2639 8.34492 17.3045C6.88554 18.4461 5.03254 19.1339 3.02654 19.1339C2.67477 19.1339 2.33738 19.1182 2 19.0751C3.90008 20.3004 6.15192 21 8.58031 21C16.4735 21 20.7889 14.4615 20.7889 8.794C20.7889 8.60438 20.7824 8.42131 20.7732 8.23954C21.6245 7.63538 22.3398 6.88085 22.9231 6.01254Z" fill="#CCD2D7"/>
</svg>
