<svg width="24" height="24" viewBox="0 0 24 24" fill="none" xmlns="http://www.w3.org/2000/svg">
    <path fill-rule="evenodd" clip-rule="evenodd" d="M20.0941 5.45831C21.0117 5.70545 21.7352 6.42887 21.9822 7.34663C22.4412 9.02296 22.4235 12.5172 22.4235 12.5172C22.4235 12.5172 22.4235 15.9936 21.9824 17.67C21.7352 18.5876 21.0118 19.3112 20.0941 19.5582C18.4176 19.9995 11.7118 19.9995 11.7118 19.9995C11.7118 19.9995 5.02345 19.9995 3.32947 19.5407C2.41171 19.2936 1.68828 18.57 1.44115 17.6524C1 15.9936 1 12.4995 1 12.4995C1 12.4995 1 9.02296 1.44115 7.34663C1.68812 6.42903 2.42936 5.68779 3.32931 5.44082C5.0058 4.99951 11.7116 4.99951 11.7116 4.99951C11.7116 4.99951 18.4176 4.99951 20.0941 5.45831ZM15.1528 12.4996L9.57642 15.7114V9.28784L15.1528 12.4996Z" fill="#CCD2D7"/>
</svg>
